<svg width="1109" height="1080" viewBox="0 0 1109 1080" fill="none" xmlns="http://www.w3.org/2000/svg">
<path d="M0 0H1109V1080H0V0Z" fill="#FBD50A"/>
<path opacity="0.5" d="M147.5 868C154.404 868 160 862.404 160 855.5C160 848.596 154.404 843 147.5 843C140.596 843 135 848.596 135 855.5C135 862.404 140.596 868 147.5 868Z" fill="url(#paint0_linear_128_1146)"/>
<g opacity="0.93">
<path opacity="0.93" fill-rule="evenodd" clip-rule="evenodd" d="M750.083 302.92C749.585 304.051 748.197 304.428 747.231 305.092C744.214 307.265 741.06 310.554 737.53 312.531C735.274 314.493 732.89 316.302 730.393 317.947C729.156 318.883 728.1 320.06 726.908 320.965C721.808 324.888 716.965 328.509 711.745 332.417C711.217 332.809 710.628 333.216 710.009 333.639C708.606 334.604 706.992 335.917 705.619 336.656C705.033 337.08 704.328 337.308 703.605 337.308C702.881 337.308 702.177 337.08 701.59 336.656C701.832 334.906 704.276 333.201 706.479 331.376C710.206 328.358 715.532 324.375 719.394 321.674C722.276 319.592 725.188 317.419 728.085 315.533C730.982 313.647 733.894 311.58 736.821 309.83C738.963 308.563 741.211 307.582 743.309 306.42C745.406 305.258 747.805 304.021 750.083 302.92Z" fill="white"/>
</g>
<g opacity="0.93">
<path opacity="0.93" fill-rule="evenodd" clip-rule="evenodd" d="M686.291 500.33C685.99 501.009 685.175 501.22 684.601 501.628C682.779 503.239 680.87 504.75 678.883 506.154C677.55 507.319 676.144 508.397 674.674 509.383C673.934 509.956 673.316 510.665 672.622 511.193C669.604 513.547 666.752 515.72 663.674 518.058L662.648 518.798C661.819 519.371 660.883 520.156 660.053 520.638C659.711 520.892 659.295 521.029 658.869 521.029C658.443 521.029 658.027 520.892 657.685 520.638C657.82 519.582 659.193 518.571 660.566 517.485C662.754 515.644 665.938 513.275 668.11 511.661C669.83 510.409 671.535 509.111 673.255 507.98C674.975 506.848 676.68 505.611 678.4 504.57C679.668 503.8 680.995 503.212 682.233 502.518C683.47 501.824 684.948 501.009 686.291 500.33Z" fill="white"/>
</g>
<path fill-rule="evenodd" clip-rule="evenodd" d="M890.493 55C889.98 56.1316 888.607 56.5088 887.626 57.1727C884.608 59.3453 881.455 62.6345 877.939 64.611C875.678 66.5658 873.294 68.375 870.803 70.0276C869.551 70.963 868.494 72.1399 867.318 73.0452C862.203 76.968 857.36 80.5891 852.139 84.4969C851.611 84.8892 851.023 85.2966 850.419 85.719C849.001 86.6847 847.401 87.9973 846.013 88.7366C845.429 89.1588 844.727 89.386 844.007 89.386C843.286 89.386 842.584 89.1588 842 88.7366C842.226 86.9864 844.671 85.2815 846.888 83.4558C850.6 80.4382 855.941 76.455 859.789 73.7543C862.686 71.6722 865.598 69.5146 868.494 67.6135C871.391 65.7124 874.288 63.6605 877.23 61.9103C879.373 60.6429 881.606 59.6622 883.703 58.5004C885.8 57.3386 888.199 56.1316 890.493 55Z" fill="url(#paint1_linear_128_1146)"/>
<path d="M778.765 407.464C779.324 407.464 779.776 407.011 779.776 406.453C779.776 405.894 779.324 405.442 778.765 405.442C778.207 405.442 777.754 405.894 777.754 406.453C777.754 407.011 778.207 407.464 778.765 407.464Z" fill="#1B1633"/>
<path d="M699.614 397.038C700.172 397.038 700.625 396.586 700.625 396.027C700.625 395.469 700.172 395.016 699.614 395.016C699.056 395.016 698.603 395.469 698.603 396.027C698.603 396.586 699.056 397.038 699.614 397.038Z" fill="#1B1633"/>
<path d="M730.725 380.819C731.284 380.819 731.736 380.366 731.736 379.808C731.736 379.249 731.284 378.797 730.725 378.797C730.167 378.797 729.714 379.249 729.714 379.808C729.714 380.366 730.167 380.819 730.725 380.819Z" fill="#1B1633"/>
<path d="M617.626 282.928C618.184 282.928 618.637 282.476 618.637 281.918C618.637 281.359 618.184 280.907 617.626 280.907C617.068 280.907 616.615 281.359 616.615 281.918C616.615 282.476 617.068 282.928 617.626 282.928Z" fill="#1B1633"/>
<path d="M674.734 326.2C675.292 326.2 675.745 325.748 675.745 325.189C675.745 324.631 675.292 324.178 674.734 324.178C674.176 324.178 673.723 324.631 673.723 325.189C673.723 325.748 674.176 326.2 674.734 326.2Z" fill="#1B1633"/>
<path d="M399.953 395.62C400.511 395.62 400.964 395.167 400.964 394.609C400.964 394.051 400.511 393.598 399.953 393.598C399.394 393.598 398.942 394.051 398.942 394.609C398.942 395.167 399.394 395.62 399.953 395.62Z" fill="#1B1633"/>
<path d="M688.947 267.704C689.505 267.704 689.958 267.252 689.958 266.693C689.958 266.135 689.505 265.682 688.947 265.682C688.388 265.682 687.936 266.135 687.936 266.693C687.936 267.252 688.388 267.704 688.947 267.704Z" fill="#1B1633"/>
<path d="M512.388 194.528C513.146 194.528 513.761 193.913 513.761 193.155C513.761 192.396 513.146 191.782 512.388 191.782C511.629 191.782 511.015 192.396 511.015 193.155C511.015 193.913 511.629 194.528 512.388 194.528Z" fill="#1B1633"/>
<path d="M760.343 447.718C761.176 447.718 761.852 447.043 761.852 446.209C761.852 445.376 761.176 444.7 760.343 444.7C759.509 444.7 758.834 445.376 758.834 446.209C758.834 447.043 759.509 447.718 760.343 447.718Z" fill="#1B1633"/>
<path d="M611.093 559.867C611.926 559.867 612.602 559.191 612.602 558.358C612.602 557.525 611.926 556.849 611.093 556.849C610.26 556.849 609.584 557.525 609.584 558.358C609.584 559.191 610.26 559.867 611.093 559.867Z" fill="#1B1633"/>
<path d="M622.409 343.325C623.242 343.325 623.918 342.649 623.918 341.816C623.918 340.983 623.242 340.307 622.409 340.307C621.576 340.307 620.9 340.983 620.9 341.816C620.9 342.649 621.576 343.325 622.409 343.325Z" fill="#1B1633"/>
<path d="M450.935 496.241C451.768 496.241 452.443 495.566 452.443 494.732C452.443 493.899 451.768 493.224 450.935 493.224C450.101 493.224 449.426 493.899 449.426 494.732C449.426 495.566 450.101 496.241 450.935 496.241Z" fill="#1B1633"/>
<path d="M402.487 409.471C403.321 409.471 403.996 408.795 403.996 407.962C403.996 407.129 403.321 406.453 402.487 406.453C401.654 406.453 400.979 407.129 400.979 407.962C400.979 408.795 401.654 409.471 402.487 409.471Z" fill="#1B1633"/>
<path d="M667.175 533.795C668.008 533.795 668.684 533.12 668.684 532.286C668.684 531.453 668.008 530.778 667.175 530.778C666.342 530.778 665.666 531.453 665.666 532.286C665.666 533.12 666.342 533.795 667.175 533.795Z" fill="#1B1633"/>
<path d="M758.834 341.816C759.667 341.816 760.343 341.14 760.343 340.307C760.343 339.474 759.667 338.798 758.834 338.798C758.001 338.798 757.325 339.474 757.325 340.307C757.325 341.14 758.001 341.816 758.834 341.816Z" fill="#B44538"/>
<path d="M684.212 446.355C685.296 445.271 685.262 443.48 684.137 442.355C683.012 441.229 681.22 441.196 680.136 442.28C679.052 443.364 679.086 445.155 680.211 446.281C681.336 447.406 683.128 447.44 684.212 446.355Z" fill="#B44538"/>
<path d="M533.979 296.99C534.812 296.99 535.488 296.314 535.488 295.481C535.488 294.648 534.812 293.972 533.979 293.972C533.145 293.972 532.47 294.648 532.47 295.481C532.47 296.314 533.145 296.99 533.979 296.99Z" fill="#B44538"/>
<path d="M394.204 402.289C395.037 402.289 395.713 401.613 395.713 400.78C395.713 399.947 395.037 399.271 394.204 399.271C393.371 399.271 392.695 399.947 392.695 400.78C392.695 401.613 393.371 402.289 394.204 402.289Z" fill="#B44538"/>
<path d="M347.884 382.343C348.717 382.343 349.393 381.667 349.393 380.834C349.393 380.001 348.717 379.325 347.884 379.325C347.051 379.325 346.375 380.001 346.375 380.834C346.375 381.667 347.051 382.343 347.884 382.343Z" fill="#B44538"/>
<path d="M712.212 566.973C713.046 566.973 713.721 566.298 713.721 565.464C713.721 564.631 713.046 563.956 712.212 563.956C711.379 563.956 710.704 564.631 710.704 565.464C710.704 566.298 711.379 566.973 712.212 566.973Z" fill="#B44538"/>
<path d="M466.189 540.328C467.022 540.328 467.697 539.653 467.697 538.82C467.697 537.986 467.022 537.311 466.189 537.311C465.355 537.311 464.68 537.986 464.68 538.82C464.68 539.653 465.355 540.328 466.189 540.328Z" fill="#B44538"/>
<path fill-rule="evenodd" clip-rule="evenodd" d="M217.493 574C216.98 575.147 215.592 575.509 214.626 576.173C211.608 578.36 208.455 581.65 204.939 583.611C202.678 585.566 200.294 587.375 197.803 589.028C196.551 589.963 195.494 591.155 194.318 592.045C189.203 595.968 184.36 599.589 179.139 603.497C178.611 603.889 178.023 604.312 177.404 604.719C176.001 605.685 174.386 606.997 173.013 607.737C172.429 608.159 171.727 608.386 171.007 608.386C170.286 608.386 169.584 608.159 169 607.737C169.226 605.986 171.671 604.281 173.873 602.471C177.6 599.453 183.002 595.455 186.789 592.754C189.686 590.672 192.582 588.515 195.479 586.614C198.376 584.712 201.288 582.676 204.23 580.925C206.373 579.643 208.606 578.662 210.703 577.5C212.8 576.339 215.199 575.132 217.493 574Z" fill="url(#paint2_linear_128_1146)"/>
<g opacity="0.93">
<path opacity="0.93" fill-rule="evenodd" clip-rule="evenodd" d="M428.417 135C427.919 136.147 426.531 136.509 425.566 137.173C422.548 139.36 419.395 142.65 415.864 144.611C413.61 146.594 411.226 148.423 408.727 150.088C407.475 151.023 406.434 152.2 405.242 153.106C400.127 157.028 395.299 160.649 390.154 164.557C389.626 164.95 389.038 165.357 388.419 165.779C387.016 166.745 385.401 168.058 384.028 168.797C383.442 169.22 382.737 169.448 382.014 169.448C381.291 169.448 380.586 169.22 380 168.797C380.241 167.047 382.671 165.342 384.888 163.531C388.615 160.514 393.941 156.515 397.789 153.815C400.686 151.733 403.598 149.575 406.494 147.674C409.391 145.773 412.303 143.721 415.23 141.971C417.373 140.703 419.621 139.723 421.718 138.561C423.815 137.399 426.139 136.117 428.417 135Z" fill="white"/>
</g>
<path d="M890.509 1046.02C891.342 1046.02 892.018 1045.34 892.018 1044.51C892.018 1043.68 891.342 1043 890.509 1043C889.676 1043 889 1043.68 889 1044.51C889 1045.34 889.676 1046.02 890.509 1046.02Z" fill="#1B1633"/>
<path d="M915.039 251.558C916.123 250.474 916.089 248.683 914.964 247.558C913.838 246.432 912.047 246.399 910.963 247.483C909.879 248.567 909.912 250.358 911.038 251.484C912.163 252.609 913.954 252.643 915.039 251.558Z" fill="#B44538"/>
<path d="M68.0385 854.843C69.1227 853.759 69.0893 851.968 67.9639 850.843C66.8384 849.717 65.0472 849.684 63.9631 850.768C62.8789 851.852 62.9123 853.643 64.0377 854.769C65.1632 855.894 66.9544 855.928 68.0385 854.843Z" fill="#B44538"/>
<path d="M970.039 387.039C971.123 385.954 971.089 384.163 969.964 383.038C968.838 381.912 967.047 381.879 965.963 382.963C964.879 384.047 964.912 385.838 966.038 386.964C967.163 388.089 968.954 388.123 970.039 387.039Z" fill="#B44538"/>
<path d="M123.039 990.323C124.123 989.239 124.089 987.448 122.964 986.323C121.838 985.197 120.047 985.164 118.963 986.248C117.879 987.332 117.912 989.123 119.038 990.249C120.163 991.374 121.954 991.408 123.039 990.323Z" fill="#B44538"/>
<path d="M996.039 911.039C997.123 909.954 997.089 908.163 995.964 907.038C994.838 905.912 993.047 905.879 991.963 906.963C990.879 908.047 990.912 909.838 992.038 910.964C993.163 912.089 994.954 912.123 996.039 911.039Z" fill="#B44538"/>
<path d="M541.509 101.089C542.342 101.089 543.018 100.414 543.018 99.5803C543.018 98.747 542.342 98.0715 541.509 98.0715C540.676 98.0715 540 98.747 540 99.5803C540 100.414 540.676 101.089 541.509 101.089Z" fill="#1B1633"/>
<defs>
<linearGradient id="paint0_linear_128_1146" x1="158.963" y1="860.494" x2="136.031" y2="850.512" gradientUnits="userSpaceOnUse">
<stop stop-color="#860752"/>
<stop offset="1" stop-color="#FFD9A8"/>
</linearGradient>
<linearGradient id="paint1_linear_128_1146" x1="888.481" y1="79.0623" x2="850.053" y2="55.4712" gradientUnits="userSpaceOnUse">
<stop stop-color="#860752"/>
<stop offset="1" stop-color="#FFD9A8"/>
</linearGradient>
<linearGradient id="paint2_linear_128_1146" x1="215.481" y1="598.062" x2="177.053" y2="574.471" gradientUnits="userSpaceOnUse">
<stop stop-color="#860752"/>
<stop offset="1" stop-color="#FFD9A8"/>
</linearGradient>
</defs>
</svg>
