<svg xmlns="http://www.w3.org/2000/svg" xmlns:xlink="http://www.w3.org/1999/xlink" width="1080" zoomAndPan="magnify" viewBox="0 0 810 809.999993" height="1080" preserveAspectRatio="xMidYMid meet" version="1.0"><defs><clipPath id="bd23300328"><path d="M 157 32.585938 L 772.578125 32.585938 L 772.578125 451 L 157 451 Z M 157 32.585938 " clip-rule="nonzero"/></clipPath><clipPath id="8f0378195b"><path d="M 157 33 L 772.578125 33 L 772.578125 68 L 157 68 Z M 157 33 " clip-rule="nonzero"/></clipPath><clipPath id="bd3b3da89b"><path d="M 402 689 L 461 689 L 461 781.835938 L 402 781.835938 Z M 402 689 " clip-rule="nonzero"/></clipPath></defs><g clip-path="url(#bd23300328)"><path fill="#fbd50a" d="M 157.917969 50.203125 C 157.917969 40.511719 165.773438 32.65625 175.460938 32.65625 L 754.476562 32.65625 C 764.164062 32.65625 772.019531 40.511719 772.019531 50.203125 L 772.019531 432.703125 C 772.019531 442.390625 764.164062 450.246094 754.476562 450.246094 L 175.460938 450.246094 C 165.773438 450.246094 157.917969 442.390625 157.917969 432.703125 Z M 157.917969 50.203125 " fill-opacity="1" fill-rule="nonzero"/></g><g clip-path="url(#8f0378195b)"><path fill="#253036" d="M 157.652344 51.003906 C 157.652344 41.3125 165.507812 33.457031 175.199219 33.457031 L 754.789062 33.457031 C 764.476562 33.457031 772.332031 41.3125 772.332031 51.003906 L 772.332031 67.878906 L 157.652344 67.878906 Z M 157.652344 51.003906 " fill-opacity="1" fill-rule="nonzero"/></g><path fill="#fbd50a" d="M 198.273438 51.214844 C 198.273438 55.316406 195.128906 58.640625 191.253906 58.640625 C 187.378906 58.640625 184.234375 55.316406 184.234375 51.214844 C 184.234375 47.117188 187.378906 43.792969 191.253906 43.792969 C 195.128906 43.792969 198.273438 47.117188 198.273438 51.214844 Z M 198.273438 51.214844 " fill-opacity="1" fill-rule="nonzero"/><path fill="#fbd50a" d="M 221.082031 51.214844 C 221.082031 55.316406 217.941406 58.640625 214.0625 58.640625 C 210.1875 58.640625 207.042969 55.316406 207.042969 51.214844 C 207.042969 47.117188 210.1875 43.792969 214.0625 43.792969 C 217.941406 43.792969 221.082031 47.117188 221.082031 51.214844 Z M 221.082031 51.214844 " fill-opacity="1" fill-rule="nonzero"/><path fill="#fbd50a" d="M 243.890625 51.214844 C 243.890625 55.316406 240.75 58.640625 236.871094 58.640625 C 232.996094 58.640625 229.855469 55.316406 229.855469 51.214844 C 229.855469 47.117188 232.996094 43.792969 236.871094 43.792969 C 240.75 43.792969 243.890625 47.117188 243.890625 51.214844 Z M 243.890625 51.214844 " fill-opacity="1" fill-rule="nonzero"/><path fill="#f2f2f2" d="M 387.765625 171.269531 C 387.765625 206.152344 359.488281 234.433594 324.601562 234.433594 C 289.71875 234.433594 261.4375 206.152344 261.4375 171.269531 C 261.4375 136.382812 289.71875 108.101562 324.601562 108.101562 C 359.488281 108.101562 387.765625 136.382812 387.765625 171.269531 Z M 387.765625 171.269531 " fill-opacity="1" fill-rule="nonzero"/><path fill="#f2f2f2" d="M 224.589844 288.824219 C 224.589844 281.074219 230.875 274.789062 238.628906 274.789062 L 410.578125 274.789062 C 418.328125 274.789062 424.613281 281.074219 424.613281 288.824219 C 424.613281 296.578125 418.328125 302.863281 410.578125 302.863281 L 238.628906 302.863281 C 230.875 302.863281 224.589844 296.578125 224.589844 288.824219 Z M 224.589844 288.824219 " fill-opacity="1" fill-rule="nonzero"/><path fill="#f2f2f2" d="M 224.589844 337.953125 C 224.589844 330.203125 230.875 323.917969 238.628906 323.917969 L 410.578125 323.917969 C 418.328125 323.917969 424.613281 330.203125 424.613281 337.953125 C 424.613281 345.707031 418.328125 351.992188 410.578125 351.992188 L 238.628906 351.992188 C 230.875 351.992188 224.589844 345.707031 224.589844 337.953125 Z M 224.589844 337.953125 " fill-opacity="1" fill-rule="nonzero"/><path fill="#253036" d="M 277.226562 396.730469 C 277.226562 383.648438 287.835938 373.046875 300.914062 373.046875 L 346.535156 373.046875 C 359.617188 373.046875 370.222656 383.648438 370.222656 396.730469 C 370.222656 409.816406 359.617188 420.417969 346.535156 420.417969 L 300.914062 420.417969 C 287.835938 420.417969 277.226562 409.816406 277.226562 396.730469 Z M 277.226562 396.730469 " fill-opacity="1" fill-rule="nonzero"/><path fill="#fbd50a" d="M 317.234375 391.097656 C 317.921875 390.417969 319.03125 390.421875 319.714844 391.113281 L 325.328125 396.792969 L 319.699219 402.367188 C 319.011719 403.046875 317.898438 403.042969 317.21875 402.351562 C 316.535156 401.664062 316.542969 400.554688 317.230469 399.871094 L 318.582031 398.535156 L 303.546875 398.535156 C 302.578125 398.535156 301.792969 397.75 301.792969 396.78125 C 301.792969 395.8125 302.578125 395.023438 303.546875 395.023438 L 318.648438 395.023438 L 317.214844 393.578125 C 316.535156 392.890625 316.542969 391.777344 317.234375 391.097656 Z M 317.234375 391.097656 " fill-opacity="1" fill-rule="evenodd"/><path fill="#fbd50a" d="M 310.566406 381.816406 L 340.394531 381.816406 L 340.394531 411.644531 L 310.566406 411.644531 L 310.566406 403.3125 C 310.566406 402.34375 311.351562 401.558594 312.320312 401.558594 C 313.289062 401.558594 314.074219 402.34375 314.074219 403.3125 L 314.074219 408.136719 L 336.882812 408.136719 L 336.882812 385.328125 L 314.074219 385.328125 L 314.074219 390.152344 C 314.074219 391.121094 313.289062 391.90625 312.320312 391.90625 C 311.351562 391.90625 310.566406 391.121094 310.566406 390.152344 Z M 310.566406 381.816406 " fill-opacity="1" fill-rule="evenodd"/><path fill="#253036" d="M 345.65625 150.214844 C 345.65625 161.839844 336.230469 171.269531 324.601562 171.269531 C 312.972656 171.269531 303.546875 161.839844 303.546875 150.214844 C 303.546875 138.585938 312.972656 129.15625 324.601562 129.15625 C 336.230469 129.15625 345.65625 138.585938 345.65625 150.214844 Z M 345.65625 150.214844 " fill-opacity="1" fill-rule="nonzero"/><path fill="#253036" d="M 324.601562 181.796875 C 301.246094 181.796875 281.691406 194.894531 276.707031 212.449219 C 288.289062 225.910156 305.449219 234.433594 324.601562 234.433594 C 343.753906 234.433594 360.914062 225.910156 372.5 212.449219 C 367.511719 194.894531 347.960938 181.796875 324.601562 181.796875 Z M 324.601562 181.796875 " fill-opacity="1" fill-rule="nonzero"/><path fill="#253036" d="M 244.417969 297.597656 L 244.621094 291.566406 L 239.855469 294.800781 L 238.628906 292.5 L 243.648438 289.703125 L 238.628906 286.90625 L 239.855469 284.605469 L 244.621094 287.835938 L 244.417969 281.808594 L 246.875 281.808594 L 246.671875 287.835938 L 251.433594 284.605469 L 252.664062 286.90625 L 247.644531 289.703125 L 252.664062 292.5 L 251.433594 294.800781 L 246.671875 291.566406 L 246.875 297.597656 Z M 244.417969 297.597656 " fill-opacity="1" fill-rule="nonzero"/><path fill="#253036" d="M 244.417969 346.726562 L 244.621094 340.695312 L 239.855469 343.929688 L 238.628906 341.628906 L 243.648438 338.832031 L 238.628906 336.035156 L 239.855469 333.730469 L 244.621094 336.964844 L 244.417969 330.933594 L 246.875 330.933594 L 246.671875 336.964844 L 251.433594 333.730469 L 252.664062 336.035156 L 247.644531 338.832031 L 252.664062 341.628906 L 251.433594 343.929688 L 246.671875 340.695312 L 246.875 346.726562 Z M 244.417969 346.726562 " fill-opacity="1" fill-rule="nonzero"/><path fill="#253036" d="M 265.472656 297.597656 L 265.675781 291.566406 L 260.910156 294.800781 L 259.683594 292.5 L 264.703125 289.703125 L 259.683594 286.90625 L 260.910156 284.605469 L 265.675781 287.835938 L 265.472656 281.808594 L 267.929688 281.808594 L 267.726562 287.835938 L 272.492188 284.605469 L 273.71875 286.90625 L 268.699219 289.703125 L 273.71875 292.5 L 272.492188 294.800781 L 267.726562 291.566406 L 267.929688 297.597656 Z M 265.472656 297.597656 " fill-opacity="1" fill-rule="nonzero"/><path fill="#253036" d="M 265.472656 346.726562 L 265.675781 340.695312 L 260.910156 343.929688 L 259.683594 341.628906 L 264.703125 338.832031 L 259.683594 336.035156 L 260.910156 333.730469 L 265.675781 336.964844 L 265.472656 330.933594 L 267.929688 330.933594 L 267.726562 336.964844 L 272.492188 333.730469 L 273.71875 336.035156 L 268.699219 338.832031 L 273.71875 341.628906 L 272.492188 343.929688 L 267.726562 340.695312 L 267.929688 346.726562 Z M 265.472656 346.726562 " fill-opacity="1" fill-rule="nonzero"/><path fill="#253036" d="M 286.527344 297.597656 L 286.730469 291.566406 L 281.96875 294.800781 L 280.738281 292.5 L 285.757812 289.703125 L 280.738281 286.90625 L 281.96875 284.605469 L 286.730469 287.835938 L 286.527344 281.808594 L 288.984375 281.808594 L 288.78125 287.835938 L 293.546875 284.605469 L 294.773438 286.90625 L 289.753906 289.703125 L 294.773438 292.5 L 293.546875 294.800781 L 288.78125 291.566406 L 288.984375 297.597656 Z M 286.527344 297.597656 " fill-opacity="1" fill-rule="nonzero"/><path fill="#253036" d="M 286.527344 346.726562 L 286.730469 340.695312 L 281.96875 343.929688 L 280.738281 341.628906 L 285.757812 338.832031 L 280.738281 336.035156 L 281.96875 333.730469 L 286.730469 336.964844 L 286.527344 330.933594 L 288.984375 330.933594 L 288.78125 336.964844 L 293.546875 333.730469 L 294.773438 336.035156 L 289.753906 338.832031 L 294.773438 341.628906 L 293.546875 343.929688 L 288.78125 340.695312 L 288.984375 346.726562 Z M 286.527344 346.726562 " fill-opacity="1" fill-rule="nonzero"/><path fill="#253036" d="M 307.582031 297.597656 L 307.785156 291.566406 L 303.023438 294.800781 L 301.792969 292.5 L 306.8125 289.703125 L 301.792969 286.90625 L 303.023438 284.605469 L 307.785156 287.835938 L 307.582031 281.808594 L 310.039062 281.808594 L 309.835938 287.835938 L 314.601562 284.605469 L 315.828125 286.90625 L 310.808594 289.703125 L 315.828125 292.5 L 314.601562 294.800781 L 309.835938 291.566406 L 310.039062 297.597656 Z M 307.582031 297.597656 " fill-opacity="1" fill-rule="nonzero"/><path fill="#253036" d="M 328.636719 297.597656 L 328.839844 291.566406 L 324.078125 294.800781 L 322.847656 292.5 L 327.867188 289.703125 L 322.847656 286.90625 L 324.078125 284.605469 L 328.839844 287.835938 L 328.636719 281.808594 L 331.09375 281.808594 L 330.890625 287.835938 L 335.65625 284.605469 L 336.882812 286.90625 L 331.863281 289.703125 L 336.882812 292.5 L 335.65625 294.800781 L 330.890625 291.566406 L 331.09375 297.597656 Z M 328.636719 297.597656 " fill-opacity="1" fill-rule="nonzero"/><path fill="#253036" d="M 307.582031 346.726562 L 307.785156 340.695312 L 303.023438 343.929688 L 301.792969 341.628906 L 306.8125 338.832031 L 301.792969 336.035156 L 303.023438 333.730469 L 307.785156 336.964844 L 307.582031 330.933594 L 310.039062 330.933594 L 309.835938 336.964844 L 314.601562 333.730469 L 315.828125 336.035156 L 310.808594 338.832031 L 315.828125 341.628906 L 314.601562 343.929688 L 309.835938 340.695312 L 310.039062 346.726562 Z M 307.582031 346.726562 " fill-opacity="1" fill-rule="nonzero"/><path fill="#f2f2f2" d="M 503.570312 114.242188 C 503.570312 106.007812 510.246094 99.328125 518.484375 99.328125 L 732.542969 99.328125 C 740.78125 99.328125 747.457031 106.007812 747.457031 114.242188 C 747.457031 122.480469 740.78125 129.15625 732.542969 129.15625 L 518.484375 129.15625 C 510.246094 129.15625 503.570312 122.480469 503.570312 114.242188 Z M 503.570312 114.242188 " fill-opacity="1" fill-rule="nonzero"/><path fill="#253036" d="M 520.78125 107.226562 C 517.613281 107.226562 514.972656 109.933594 514.972656 113.367188 C 514.972656 116.800781 517.613281 119.507812 520.78125 119.507812 C 522.5 119.507812 524.050781 118.71875 525.121094 117.445312 C 526.03125 116.363281 526.589844 114.9375 526.589844 113.367188 C 526.589844 109.933594 523.949219 107.226562 520.78125 107.226562 Z M 513.21875 113.367188 C 513.21875 109.046875 516.566406 105.472656 520.78125 105.472656 C 525 105.472656 528.34375 109.046875 528.34375 113.367188 C 528.34375 115.0625 527.832031 116.640625 526.953125 117.929688 L 532.265625 123.277344 L 531.023438 124.511719 L 525.808594 119.265625 C 524.476562 120.503906 522.71875 121.261719 520.78125 121.261719 C 516.566406 121.261719 513.21875 117.6875 513.21875 113.367188 Z M 513.21875 113.367188 " fill-opacity="1" fill-rule="evenodd"/><path fill="#253036" d="M 503.570312 176.53125 C 503.570312 173.625 505.925781 171.269531 508.832031 171.269531 L 742.191406 171.269531 C 745.101562 171.269531 747.457031 173.625 747.457031 176.53125 L 747.457031 248.46875 C 747.457031 251.378906 745.101562 253.734375 742.191406 253.734375 L 508.832031 253.734375 C 505.925781 253.734375 503.570312 251.378906 503.570312 248.46875 Z M 503.570312 176.53125 " fill-opacity="1" fill-rule="nonzero"/><path fill="#f2f2f2" d="M 503.570312 280.050781 C 503.570312 277.144531 505.925781 274.789062 508.832031 274.789062 L 601.828125 274.789062 C 604.734375 274.789062 607.089844 277.144531 607.089844 280.050781 L 607.089844 415.15625 C 607.089844 418.0625 604.734375 420.417969 601.828125 420.417969 L 508.832031 420.417969 C 505.925781 420.417969 503.570312 418.0625 503.570312 415.15625 Z M 503.570312 280.050781 " fill-opacity="1" fill-rule="nonzero"/><path fill="#f2f2f2" d="M 643.9375 280.050781 C 643.9375 277.144531 646.292969 274.789062 649.199219 274.789062 L 742.191406 274.789062 C 745.101562 274.789062 747.457031 277.144531 747.457031 280.050781 L 747.457031 415.15625 C 747.457031 418.0625 745.101562 420.417969 742.191406 420.417969 L 649.199219 420.417969 C 646.292969 420.417969 643.9375 418.0625 643.9375 415.15625 Z M 643.9375 280.050781 " fill-opacity="1" fill-rule="nonzero"/><path fill="#253036" d="M 503.570312 280.050781 C 503.570312 277.144531 505.925781 274.789062 508.832031 274.789062 L 601.828125 274.789062 C 604.734375 274.789062 607.089844 277.144531 607.089844 280.050781 L 607.089844 367.78125 L 503.570312 367.78125 Z M 503.570312 280.050781 " fill-opacity="1" fill-rule="nonzero"/><path fill="#253036" d="M 643.9375 280.050781 C 643.9375 277.144531 646.292969 274.789062 649.199219 274.789062 L 742.191406 274.789062 C 745.101562 274.789062 747.457031 277.144531 747.457031 280.050781 L 747.457031 367.78125 L 643.9375 367.78125 Z M 643.9375 280.050781 " fill-opacity="1" fill-rule="nonzero"/><path fill="#253036" d="M 546.558594 104.59375 L 548.3125 104.59375 L 548.3125 123.894531 L 546.558594 123.894531 Z M 546.558594 104.59375 " fill-opacity="1" fill-rule="evenodd"/><path fill="#fcbfbc" d="M 417.730469 747.894531 C 413.078125 742.867188 384.257812 746.136719 373.605469 744.058594 L 371.726562 708.140625 C 372.601562 708.09375 406.351562 715.109375 410.964844 702.570312 C 423.429688 712.457031 419.59375 738.71875 417.730469 747.894531 Z M 417.730469 747.894531 " fill-opacity="1" fill-rule="nonzero"/><path fill="#fbd50a" d="M 396.007812 711.699219 C 398.605469 718.144531 401.878906 715.726562 407.386719 721.402344 C 417.835938 732.160156 398.105469 738.503906 404.320312 745.820312 C 408.195312 750.382812 428.617188 749.664062 438.824219 748.027344 C 441.574219 730.679688 444.3125 697.355469 444.367188 674.679688 C 444.386719 667.867188 444.714844 659.8125 439.5 655.449219 C 431.730469 648.953125 419.859375 668.757812 413.917969 681.949219 C 412.269531 684.183594 410.585938 686.339844 409.007812 688.324219 L 408.558594 688.890625 C 407.496094 690.222656 406.421875 691.515625 405.367188 692.773438 C 403.753906 694.695312 402.191406 696.53125 400.800781 698.300781 C 396.902344 703.253906 394.375 707.648438 396.007812 711.699219 Z M 396.007812 711.699219 " fill-opacity="1" fill-rule="nonzero"/><path fill="#253036" d="M 397.140625 705.671875 C 396.28125 707.757812 396.117188 709.621094 396.820312 711.371094 C 397.4375 712.902344 398.074219 713.855469 398.730469 714.519531 C 399.386719 715.1875 400.113281 715.613281 400.996094 716.054688 C 401.230469 716.171875 401.476562 716.289062 401.734375 716.410156 C 403.417969 717.214844 405.515625 718.214844 408.015625 720.789062 C 410.769531 723.625 411.636719 726.292969 411.3125 728.839844 C 410.996094 731.304688 409.574219 733.496094 408.144531 735.421875 C 407.796875 735.898438 407.460938 736.332031 407.136719 736.753906 C 406.761719 737.246094 406.394531 737.722656 406.023438 738.234375 C 405.367188 739.132812 404.8125 739.980469 404.445312 740.792969 C 404.078125 741.601562 403.910156 742.339844 403.96875 743.035156 C 404.027344 743.722656 404.3125 744.453125 404.984375 745.25 L 403.648438 746.386719 C 402.773438 745.355469 402.3125 744.289062 402.222656 743.183594 C 402.128906 742.09375 402.402344 741.050781 402.847656 740.066406 C 403.292969 739.089844 403.925781 738.128906 404.605469 737.199219 C 404.960938 736.707031 405.371094 736.175781 405.773438 735.648438 C 406.109375 735.214844 406.4375 734.78125 406.738281 734.378906 C 408.15625 732.460938 409.320312 730.59375 409.574219 728.617188 C 409.816406 726.71875 409.230469 724.558594 406.757812 722.011719 C 404.484375 719.671875 402.648438 718.792969 400.984375 717.996094 C 400.722656 717.871094 400.46875 717.75 400.214844 717.625 C 399.269531 717.152344 398.339844 716.625 397.480469 715.75 C 396.621094 714.878906 395.871094 713.714844 395.191406 712.027344 C 394.265625 709.722656 394.546875 707.363281 395.519531 705.003906 C 396.480469 702.660156 398.152344 700.246094 400.109375 697.757812 C 401.289062 696.257812 402.59375 694.703125 403.933594 693.109375 C 404.1875 692.8125 404.4375 692.511719 404.691406 692.210938 C 405.746094 690.953125 406.816406 689.664062 407.871094 688.34375 L 408.320312 687.78125 C 408.320312 687.78125 408.320312 687.78125 408.320312 687.777344 M 408.882812 689.886719 C 408.039062 690.9375 407.1875 691.964844 406.351562 692.964844 C 406.382812 693.089844 406.421875 693.21875 406.457031 693.355469 C 406.503906 693.527344 406.554688 693.714844 406.609375 693.914062 L 406.625 693.980469 C 406.683594 694.207031 406.75 694.449219 406.820312 694.710938 C 407.097656 695.746094 407.460938 697.003906 407.933594 698.273438 C 408.402344 699.542969 408.96875 700.792969 409.648438 701.816406 C 410.332031 702.847656 411.078125 703.574219 411.882812 703.917969 L 411.195312 705.53125 C 409.945312 705 408.960938 703.957031 408.183594 702.785156 C 407.402344 701.605469 406.78125 700.21875 406.285156 698.882812 C 405.789062 697.542969 405.410156 696.222656 405.125 695.167969 C 405.074219 694.96875 405.019531 694.78125 404.972656 694.601562 C 403.855469 695.929688 402.785156 697.210938 401.792969 698.457031 C 401.816406 698.515625 401.839844 698.578125 401.863281 698.644531 C 402.226562 699.640625 402.871094 701.425781 403.765625 703.320312 C 404.339844 704.542969 405 705.769531 405.71875 706.800781 C 406.445312 707.84375 407.183594 708.617188 407.894531 709.019531 L 407.03125 710.546875 C 405.984375 709.957031 405.0625 708.929688 404.277344 707.804688 C 403.484375 706.660156 402.777344 705.335938 402.179688 704.070312 C 401.484375 702.597656 400.914062 701.140625 400.523438 700.09375 C 399.039062 702.078125 397.859375 703.925781 397.140625 705.671875 M 410.085938 688.378906 C 410.386719 688.910156 410.675781 689.574219 410.960938 690.25 C 411.058594 690.476562 411.15625 690.710938 411.253906 690.945312 C 411.597656 691.769531 411.96875 692.652344 412.390625 693.539062 C 412.933594 694.675781 413.539062 695.773438 414.238281 696.679688 C 414.941406 697.589844 415.703125 698.261719 416.542969 698.621094 L 415.855469 700.234375 C 414.640625 699.71875 413.65625 698.796875 412.851562 697.753906 C 412.042969 696.703125 411.371094 695.480469 410.804688 694.292969 C 410.367188 693.363281 409.976562 692.429688 409.628906 691.601562 C 409.53125 691.371094 409.4375 691.148438 409.347656 690.9375 C 409.179688 690.539062 409.023438 690.1875 408.882812 689.886719 M 410.085938 688.378906 C 411.191406 686.980469 412.347656 685.5 413.503906 683.96875 C 413.9375 685.589844 414.558594 687.519531 415.34375 689.320312 C 415.898438 690.59375 416.550781 691.832031 417.292969 692.855469 C 418.023438 693.863281 418.898438 694.738281 419.929688 695.175781 L 420.617188 693.5625 C 420.007812 693.300781 419.363281 692.71875 418.710938 691.820312 C 418.070312 690.941406 417.480469 689.828125 416.949219 688.617188 C 415.949219 686.324219 415.222656 683.78125 414.835938 682.046875 C 417.792969 675.527344 422.152344 667.496094 426.703125 661.867188 C 429.019531 659.003906 431.324219 656.839844 433.449219 655.777344 C 434.503906 655.25 435.480469 655.011719 436.367188 655.054688 C 437.246094 655.101562 438.097656 655.421875 438.9375 656.121094 L 440.058594 654.773438 C 438.957031 653.847656 437.742188 653.367188 436.457031 653.304688 C 435.1875 653.242188 433.910156 653.585938 432.667969 654.207031 C 430.199219 655.441406 427.707031 657.835938 425.339844 660.761719 C 420.613281 666.609375 416.140625 674.886719 413.15625 681.503906 M 431.214844 703.351562 C 430.101562 718.644531 428.277344 733.886719 426.820312 743.996094 L 425.082031 743.742188 C 426.535156 733.671875 428.355469 718.46875 429.464844 703.222656 C 430.578125 687.957031 430.976562 672.726562 429.625 662.5625 L 431.363281 662.332031 C 432.742188 672.6875 432.328125 688.078125 431.214844 703.351562 Z M 431.214844 703.351562 " fill-opacity="1" fill-rule="evenodd"/><path fill="#fcbfbc" d="M 416.09375 777.191406 C 412.6875 771.242188 383.871094 767.945312 373.960938 763.523438 L 380.207031 728.101562 C 381.070312 728.253906 412.378906 742.683594 419.695312 731.503906 C 429.617188 743.941406 419.96875 768.667969 416.09375 777.191406 Z M 416.09375 777.191406 " fill-opacity="1" fill-rule="nonzero"/><g clip-path="url(#bd3b3da89b)"><path fill="#fbd50a" d="M 403.066406 737.035156 C 404.144531 743.898438 407.882812 742.28125 411.972656 749.046875 C 419.734375 761.882812 399.082031 763.625 403.488281 772.148438 C 406.238281 777.46875 426.296875 781.359375 436.613281 782.0625 C 443.195312 765.777344 453.359375 733.921875 458.515625 711.839844 C 460.066406 705.207031 462.199219 697.429688 458.097656 692.007812 C 451.988281 683.929688 435.96875 700.554688 427.210938 712.074219 C 425.101562 713.882812 422.976562 715.601562 420.992188 717.183594 L 420.425781 717.632812 C 419.09375 718.691406 417.753906 719.710938 416.441406 720.699219 C 414.441406 722.207031 412.5 723.648438 410.75 725.058594 C 405.839844 729.007812 402.386719 732.71875 403.066406 737.035156 Z M 403.066406 737.035156 " fill-opacity="1" fill-rule="nonzero"/></g><path fill="#253036" d="M 405.527344 731.414062 C 404.222656 733.257812 403.640625 735.035156 403.933594 736.894531 C 404.191406 738.527344 404.59375 739.597656 405.085938 740.394531 C 405.578125 741.191406 406.1875 741.773438 406.949219 742.398438 C 407.152344 742.566406 407.367188 742.734375 407.585938 742.910156 C 409.046875 744.074219 410.867188 745.519531 412.722656 748.589844 C 414.769531 751.972656 415.015625 754.769531 414.125 757.175781 C 413.261719 759.511719 411.382812 761.324219 409.558594 762.882812 C 409.109375 763.261719 408.6875 763.613281 408.277344 763.953125 C 407.796875 764.347656 407.332031 764.730469 406.855469 765.140625 C 406.011719 765.871094 405.285156 766.570312 404.746094 767.28125 C 404.203125 767.984375 403.875 768.664062 403.777344 769.359375 C 403.675781 770.042969 403.789062 770.816406 404.269531 771.746094 L 402.710938 772.550781 C 402.085938 771.347656 401.878906 770.203125 402.039062 769.109375 C 402.195312 768.027344 402.695312 767.070312 403.347656 766.214844 C 404.003906 765.359375 404.835938 764.570312 405.710938 763.816406 C 406.167969 763.417969 406.683594 762.988281 407.195312 762.566406 C 407.617188 762.21875 408.039062 761.871094 408.421875 761.546875 C 410.234375 760 411.789062 758.4375 412.476562 756.566406 C 413.140625 754.773438 413.058594 752.539062 411.222656 749.5 C 409.535156 746.707031 407.941406 745.4375 406.5 744.292969 C 406.273438 744.109375 406.054688 743.933594 405.832031 743.753906 C 405.015625 743.082031 404.234375 742.355469 403.589844 741.3125 C 402.949219 740.269531 402.484375 738.96875 402.199219 737.167969 C 401.8125 734.714844 402.621094 732.480469 404.097656 730.398438 C 405.5625 728.335938 407.730469 726.359375 410.199219 724.375 C 411.6875 723.175781 413.308594 721.957031 414.976562 720.703125 C 415.285156 720.46875 415.601562 720.234375 415.914062 719.996094 C 417.222656 719.007812 418.554688 717.996094 419.878906 716.945312 L 420.445312 716.496094 M 420.519531 718.675781 C 419.460938 719.511719 418.398438 720.316406 417.359375 721.105469 C 417.363281 721.234375 417.371094 721.371094 417.378906 721.511719 C 417.382812 721.6875 417.390625 721.882812 417.398438 722.089844 L 417.398438 722.15625 C 417.40625 722.390625 417.414062 722.644531 417.421875 722.910156 C 417.464844 723.984375 417.535156 725.292969 417.707031 726.632812 C 417.878906 727.980469 418.152344 729.324219 418.582031 730.472656 C 419.015625 731.632812 419.582031 732.507812 420.285156 733.019531 L 419.253906 734.4375 C 418.15625 733.640625 417.429688 732.402344 416.9375 731.089844 C 416.441406 729.761719 416.148438 728.269531 415.964844 726.859375 C 415.785156 725.441406 415.710938 724.066406 415.671875 722.976562 C 415.664062 722.773438 415.65625 722.578125 415.652344 722.390625 C 414.261719 723.4375 412.929688 724.441406 411.683594 725.433594 C 411.691406 725.496094 411.699219 725.5625 411.707031 725.628906 C 411.839844 726.6875 412.066406 728.566406 412.511719 730.617188 C 412.796875 731.933594 413.164062 733.277344 413.632812 734.445312 C 414.105469 735.628906 414.652344 736.546875 415.253906 737.09375 L 414.066406 738.390625 C 413.179688 737.578125 412.511719 736.371094 412.003906 735.097656 C 411.484375 733.804688 411.09375 732.359375 410.796875 730.988281 C 410.453125 729.398438 410.222656 727.851562 410.078125 726.742188 C 408.1875 728.34375 406.621094 729.878906 405.527344 731.414062 M 422.027344 717.476562 C 422.203125 718.0625 422.335938 718.777344 422.464844 719.5 C 422.507812 719.742188 422.550781 719.988281 422.59375 720.242188 C 422.742188 721.125 422.90625 722.066406 423.117188 723.023438 C 423.386719 724.253906 423.730469 725.460938 424.210938 726.5 C 424.691406 727.546875 425.28125 728.375 426.015625 728.910156 L 424.984375 730.328125 C 423.917969 729.550781 423.167969 728.433594 422.617188 727.234375 C 422.0625 726.03125 421.6875 724.6875 421.402344 723.402344 C 421.179688 722.398438 421.011719 721.402344 420.859375 720.515625 C 420.816406 720.269531 420.777344 720.03125 420.734375 719.804688 C 420.660156 719.378906 420.589844 719 420.519531 718.675781 M 422.027344 717.476562 C 423.421875 716.363281 424.882812 715.183594 426.351562 713.953125 C 426.410156 715.628906 426.582031 717.648438 426.941406 719.574219 C 427.199219 720.945312 427.554688 722.296875 428.046875 723.460938 C 428.53125 724.605469 429.1875 725.652344 430.09375 726.3125 L 431.125 724.894531 C 430.589844 724.507812 430.09375 723.792969 429.660156 722.773438 C 429.234375 721.769531 428.910156 720.550781 428.667969 719.253906 C 428.207031 716.796875 428.066406 714.15625 428.082031 712.375 C 432.429688 706.6875 438.488281 699.84375 444.1875 695.382812 C 447.085938 693.113281 449.816406 691.527344 452.132812 690.96875 C 453.277344 690.691406 454.28125 690.679688 455.136719 690.921875 C 455.976562 691.164062 456.738281 691.667969 457.398438 692.535156 L 458.796875 691.476562 C 457.925781 690.328125 456.851562 689.585938 455.613281 689.234375 C 454.390625 688.886719 453.070312 688.9375 451.71875 689.261719 C 449.039062 689.910156 446.070312 691.683594 443.105469 694 C 437.183594 698.632812 430.964844 705.695312 426.566406 711.46875 M 439.25 736.820312 C 434.726562 751.46875 429.519531 765.914062 425.824219 775.433594 L 424.1875 774.796875 C 427.871094 765.3125 433.0625 750.902344 437.574219 736.300781 C 442.09375 721.679688 445.910156 706.925781 446.875 696.722656 L 448.621094 696.886719 C 447.636719 707.285156 443.769531 722.1875 439.25 736.820312 Z M 439.25 736.820312 " fill-opacity="1" fill-rule="evenodd"/><path fill="#fcbfbc" d="M 198.027344 609.914062 C 196.273438 603.773438 195.21875 582.191406 194.519531 580.085938 C 186.328125 583.011719 173.640625 584.296875 170.832031 590.613281 C 170.832031 600.265625 170.269531 615.914062 175.21875 627.460938 C 177.851562 633.601562 216.742188 655.535156 229.609375 658.164062 L 250.664062 647.636719 C 243.648438 642.023438 213.527344 615.761719 198.027344 609.914062 Z M 198.027344 609.914062 " fill-opacity="1" fill-rule="nonzero"/><path fill="#253036" d="M 387.503906 708.171875 C 365.046875 705.363281 197.132812 703.785156 128.703125 699.398438 C 123.085938 708.523438 119.34375 734.195312 118.175781 745.894531 C 132.210938 745.894531 374.34375 760.808594 379.609375 757.300781 C 391.011719 745.894531 390.136719 723.960938 387.503906 708.171875 Z M 387.503906 708.171875 " fill-opacity="1" fill-rule="nonzero"/><path fill="#253036" d="M 78.695312 768.703125 C 33.078125 766.597656 47.875 689.457031 60.742188 657.289062 C 75.945312 668.667969 111.097656 690.972656 130.046875 689.144531 C 172.210938 684.917969 215.707031 674.058594 232.222656 675.710938 C 249.488281 677.4375 357.59375 706.84375 393.644531 731.859375 C 395.046875 743.082031 378.144531 766.070312 371.710938 770.460938 C 330.480469 760.808594 259.417969 747.648438 236.609375 731.859375 C 207.835938 743.085938 124.316406 770.808594 78.695312 768.703125 Z M 78.695312 768.703125 " fill-opacity="1" fill-rule="nonzero"/><path fill="#f2f2f2" d="M 340.1875 706.78125 C 340.355469 706.328125 340.859375 706.09375 341.3125 706.265625 C 359.828125 713.15625 376.890625 720.546875 388.832031 727.722656 C 389.246094 727.96875 389.382812 728.511719 389.132812 728.925781 C 388.882812 729.339844 388.34375 729.476562 387.929688 729.222656 C 376.128906 722.132812 359.1875 714.789062 340.703125 707.910156 C 340.246094 707.738281 340.015625 707.234375 340.1875 706.78125 Z M 340.1875 706.78125 " fill-opacity="1" fill-rule="evenodd"/><path fill="#f2f2f2" d="M 236.726562 730.871094 L 237.109375 731.136719 C 242.765625 735.050781 251.503906 738.839844 262.140625 742.472656 C 272.761719 746.097656 285.207031 749.546875 298.234375 752.800781 C 298.703125 752.921875 298.988281 753.398438 298.871094 753.867188 C 298.753906 754.335938 298.277344 754.621094 297.808594 754.503906 C 284.761719 751.242188 272.261719 747.78125 261.574219 744.132812 C 251.136719 740.566406 242.363281 736.804688 236.496094 732.84375 C 226.402344 736.765625 209.902344 742.605469 190.75 748.488281 C 190.289062 748.628906 189.796875 748.371094 189.65625 747.90625 C 189.511719 747.445312 189.773438 746.953125 190.234375 746.8125 C 209.625 740.855469 226.285156 734.945312 236.292969 731.039062 Z M 236.726562 730.871094 " fill-opacity="1" fill-rule="evenodd"/><path fill="#253036" d="M 169.058594 508.148438 C 163.441406 532.011719 137.476562 515.75 123.4375 504.640625 C 109.988281 508.734375 78.34375 519.203125 73.433594 528.328125 C 68.519531 537.449219 54.425781 570.144531 47.992188 585.351562 C 53.070312 588.371094 61 592.5 68.855469 595.453125 C 66.496094 632.179688 42.945312 677.109375 47.113281 720.453125 C 90.101562 673.078125 97.996094 709.925781 181.339844 699.398438 C 188.359375 688.871094 150.167969 628.992188 176.074219 597.632812 C 176.320312 597.335938 176.558594 597.035156 176.792969 596.730469 C 185.953125 593.933594 196 588.507812 201.050781 585.351562 C 194.910156 528.328125 182.628906 516.042969 169.058594 508.148438 Z M 169.058594 508.148438 " fill-opacity="1" fill-rule="nonzero"/><path fill="#253036" d="M 168.300781 507.707031 C 168.542969 507.289062 169.082031 507.148438 169.5 507.390625 C 176.394531 511.402344 182.996094 516.5625 188.625 527.9375 C 194.230469 539.257812 198.847656 556.707031 201.921875 585.257812 L 201.984375 585.804688 L 201.515625 586.09375 C 196.480469 589.242188 186.507812 594.636719 177.316406 597.488281 C 177.132812 597.722656 176.945312 597.957031 176.753906 598.191406 C 170.441406 605.832031 168.003906 615.238281 167.832031 625.296875 C 167.664062 635.367188 169.765625 646.027344 172.472656 656.101562 C 174.105469 662.179688 175.9375 667.964844 177.617188 673.28125 C 178.738281 676.820312 179.792969 680.152344 180.679688 683.222656 C 181.773438 687.023438 182.605469 690.40625 182.9375 693.183594 C 183.261719 695.917969 183.132812 698.289062 182.070312 699.882812 C 181.800781 700.289062 181.257812 700.398438 180.855469 700.128906 C 180.449219 699.859375 180.339844 699.3125 180.609375 698.914062 C 181.300781 697.878906 181.515625 696.074219 181.195312 693.390625 C 180.882812 690.761719 180.085938 687.492188 178.992188 683.710938 C 178.136719 680.738281 177.09375 677.4375 175.976562 673.90625 C 174.277344 668.535156 172.414062 662.632812 170.777344 656.558594 C 168.054688 646.425781 165.90625 635.578125 166.082031 625.269531 C 166.253906 614.953125 168.757812 605.113281 175.402344 597.074219 C 175.640625 596.785156 175.871094 596.492188 176.097656 596.195312 C 182.453125 587.875 183.796875 576.859375 182.738281 564.898438 C 181.746094 553.621094 178.632812 541.65625 175.746094 530.550781 C 175.574219 529.878906 175.402344 529.210938 175.226562 528.546875 C 175.105469 528.078125 175.386719 527.597656 175.855469 527.476562 C 176.324219 527.355469 176.804688 527.636719 176.925781 528.105469 C 177.101562 528.78125 177.277344 529.464844 177.457031 530.148438 C 180.335938 541.21875 183.480469 553.316406 184.488281 564.746094 C 185.472656 575.898438 184.4375 586.5625 179.015625 595.078125 C 187.085938 592.265625 195.449219 587.769531 200.117188 584.894531 C 197.054688 556.75 192.484375 539.691406 187.054688 528.714844 C 181.613281 517.71875 175.292969 512.792969 168.617188 508.90625 C 168.199219 508.664062 168.054688 508.125 168.300781 507.707031 Z M 168.300781 507.707031 " fill-opacity="1" fill-rule="evenodd"/><path fill="#fcbfbc" d="M 140.105469 681.851562 C 83.960938 665.183594 51.5 639.917969 47.992188 626.582031 C 44.640625 613.851562 49.992188 597.023438 53.097656 588.222656 C 61.898438 592.929688 74.363281 598.445312 83.21875 599.074219 C 81.785156 606.074219 80.496094 616.5625 78.695312 619.566406 C 122.558594 644.128906 112.035156 649.394531 153.265625 668.691406 C 159.699219 669.570312 173.269531 672.730469 176.074219 678.34375 C 172.859375 683.898438 166.953125 696.414062 155.019531 691.503906 C 150.808594 693.609375 142.15625 685.070312 140.105469 681.851562 Z M 140.105469 681.851562 " fill-opacity="1" fill-rule="nonzero"/><path fill="#fbd50a" d="M 305.683594 595.886719 L 184.273438 604.34375 C 181.792969 604.511719 179.75 606.335938 179.351562 608.746094 L 165.890625 689.3125 L 105.144531 693.546875 C 105.046875 693.550781 104.984375 693.65625 105.03125 693.746094 C 107.414062 698.382812 111.898438 701.585938 117.070312 702.339844 L 120.808594 702.882812 C 120.96875 702.90625 121.128906 702.914062 121.285156 702.902344 L 278.195312 691.976562 C 284.84375 691.511719 290.722656 687.707031 293.886719 682.003906 C 294.480469 681.300781 294.894531 680.445312 295.054688 679.496094 L 308.511719 598.925781 C 308.792969 597.25 307.40625 595.765625 305.683594 595.886719 Z M 305.683594 595.886719 " fill-opacity="1" fill-rule="nonzero"/><path fill="#fcbfbc" d="M 123.089844 504.648438 C 137.285156 500.527344 134.339844 478.320312 134.339844 465.160156 C 135.84375 470.148438 146.625 494.648438 165.460938 496.621094 C 165.277344 499.660156 168.105469 505.394531 170.621094 509.671875 C 172.101562 512.1875 172.605469 515.332031 171.027344 517.785156 C 160.296875 534.472656 135.101562 516.558594 123.089844 504.648438 Z M 123.089844 504.648438 " fill-opacity="1" fill-rule="nonzero"/><path fill="#fcbfbc" d="M 142.234375 447.503906 C 164.828125 447.007812 173.601562 431.476562 175.34375 423.175781 C 180.261719 425.039062 190.148438 431.375 190.363281 441.835938 C 190.628906 454.914062 192.863281 493.925781 170.753906 496.574219 C 168.925781 496.796875 167.15625 496.800781 165.457031 496.621094 C 146.625 494.648438 135.839844 470.148438 134.335938 465.160156 C 123.589844 458.929688 123.582031 446.929688 128.152344 443.097656 C 131.808594 440.03125 139.0625 444.757812 142.234375 447.503906 Z M 142.234375 447.503906 " fill-opacity="1" fill-rule="nonzero"/><path fill="#253036" d="M 130.789062 447.949219 C 131.003906 447.511719 131.53125 447.335938 131.964844 447.550781 C 133.066406 448.09375 134.679688 449.175781 136.015625 450.6875 C 137.355469 452.203125 138.480469 454.230469 138.433594 456.640625 C 138.421875 457.125 138.023438 457.507812 137.539062 457.5 C 137.054688 457.488281 136.667969 457.089844 136.679688 456.605469 C 136.71875 454.785156 135.867188 453.171875 134.703125 451.851562 C 133.535156 450.53125 132.113281 449.582031 131.1875 449.121094 C 130.753906 448.910156 130.574219 448.382812 130.789062 447.949219 Z M 134.085938 464.324219 C 134.546875 464.183594 135.039062 464.445312 135.179688 464.910156 C 135.902344 467.308594 138.929688 474.585938 144.105469 481.496094 C 149.285156 488.417969 156.496094 494.800781 165.550781 495.75 C 166.03125 495.800781 166.382812 496.234375 166.332031 496.714844 C 166.28125 497.195312 165.851562 497.546875 165.371094 497.496094 C 155.589844 496.46875 147.992188 489.613281 142.699219 482.546875 C 137.394531 475.464844 134.28125 468 133.5 465.414062 C 133.359375 464.953125 133.621094 464.460938 134.085938 464.324219 Z M 134.085938 464.324219 " fill-opacity="1" fill-rule="evenodd"/><path fill="#253036" d="M 142.234375 447.503906 C 164.828125 447.007812 173.601562 431.476562 175.34375 423.175781 C 180.261719 425.039062 190.152344 431.375 190.363281 441.835938 C 190.632812 454.914062 192.863281 493.925781 170.757812 496.574219 C 168.925781 496.796875 167.160156 496.800781 165.460938 496.621094 C 165.28125 499.617188 167.222656 503.890625 168.183594 508.148438 C 178.453125 514.203125 185.742188 526.324219 189.238281 532.710938 C 190.824219 535.613281 192.945312 542.257812 195.042969 549.011719 L 205.691406 534.96875 C 212.066406 524.652344 207.421875 514.691406 201.367188 505.605469 C 195.128906 496.238281 202.277344 491.21875 206.285156 481.6875 C 210.292969 472.160156 204.347656 463.523438 200.34375 456.824219 C 196.34375 450.121094 198.417969 442.542969 198.582031 424.558594 C 198.710938 410.175781 177.042969 401.855469 166.191406 399.496094 C 153.816406 397.121094 127.058594 398.332031 119.042969 422.1875 C 112.746094 441.75 119.65625 444.167969 104.109375 447.699219 C 85.027344 452.027344 102.210938 469.40625 89.15625 477.441406 C 81.527344 482.652344 67.269531 504.367188 83.085938 520.429688 C 104.109375 514.289062 122.5625 507.269531 122.5625 507.269531 C 136.753906 503.148438 134.746094 476.605469 134.339844 465.160156 C 123.589844 458.929688 123.582031 446.929688 128.152344 443.097656 C 131.808594 440.027344 139.0625 444.757812 142.234375 447.503906 Z M 142.234375 447.503906 " fill-opacity="1" fill-rule="nonzero"/><path fill="#253036" d="M 158.910156 448.082031 C 157.234375 450.199219 156.019531 453.269531 155.707031 456.796875 C 155.398438 460.328125 156.066406 463.566406 157.347656 465.9375 C 158.632812 468.324219 160.472656 469.742188 162.5 469.921875 C 164.527344 470.097656 166.585938 469.019531 168.269531 466.894531 C 169.941406 464.777344 171.160156 461.707031 171.46875 458.179688 C 171.777344 454.648438 171.109375 451.414062 169.828125 449.035156 C 168.542969 446.652344 166.703125 445.234375 164.675781 445.054688 C 162.648438 444.878906 160.589844 445.957031 158.910156 448.082031 Z M 157.535156 446.996094 C 159.445312 444.578125 162.023438 443.0625 164.828125 443.308594 C 167.632812 443.554688 169.914062 445.492188 171.375 448.203125 C 172.679688 450.625 173.386719 453.734375 173.289062 457.085938 C 173.863281 456.96875 174.511719 456.878906 175.160156 456.875 C 175.816406 456.867188 176.554688 456.945312 177.230469 457.210938 C 177.652344 454.328125 178.703125 451.765625 180.148438 449.878906 C 181.769531 447.761719 183.984375 446.394531 186.417969 446.609375 C 188.851562 446.820312 190.792969 448.550781 192.023438 450.917969 C 193.257812 453.292969 193.847656 456.425781 193.558594 459.757812 C 193.265625 463.089844 192.140625 466.070312 190.511719 468.195312 C 188.886719 470.3125 186.675781 471.679688 184.242188 471.46875 C 181.855469 471.257812 179.9375 469.585938 178.707031 467.289062 C 177.519531 465.078125 176.902344 462.191406 177.050781 459.09375 C 176.636719 458.78125 175.996094 458.621094 175.175781 458.628906 C 174.460938 458.632812 173.730469 458.765625 173.15625 458.921875 C 172.742188 462.5 171.460938 465.6875 169.644531 467.984375 C 167.734375 470.398438 165.152344 471.914062 162.347656 471.667969 C 159.542969 471.421875 157.265625 469.484375 155.804688 466.773438 C 154.335938 464.054688 153.625 460.464844 153.960938 456.644531 C 154.292969 452.824219 155.617188 449.414062 157.535156 446.996094 Z M 181.542969 450.945312 C 180.144531 452.769531 179.117188 455.417969 178.851562 458.472656 C 178.839844 458.582031 178.832031 458.695312 178.824219 458.804688 C 178.621094 461.78125 179.195312 464.488281 180.25 466.460938 C 181.316406 468.441406 182.796875 469.578125 184.394531 469.71875 C 186.023438 469.863281 187.714844 468.964844 189.117188 467.128906 C 190.515625 465.308594 191.542969 462.65625 191.808594 459.605469 C 192.074219 456.554688 191.523438 453.765625 190.464844 451.726562 C 189.398438 449.675781 187.894531 448.496094 186.265625 448.355469 C 184.636719 448.214844 182.945312 449.113281 181.542969 450.945312 Z M 181.542969 450.945312 " fill-opacity="1" fill-rule="evenodd"/><path fill="#253036" d="M 170.394531 461.582031 C 170.242188 463.324219 169.179688 464.652344 168.019531 464.550781 C 166.859375 464.449219 166.042969 462.957031 166.195312 461.21875 C 166.347656 459.476562 167.410156 458.144531 168.570312 458.25 C 169.730469 458.351562 170.550781 459.84375 170.394531 461.582031 Z M 170.394531 461.582031 " fill-opacity="1" fill-rule="nonzero"/><path fill="#253036" d="M 189.246094 463.9375 C 189.09375 465.679688 188.027344 467.007812 186.867188 466.90625 C 185.707031 466.804688 184.890625 465.3125 185.042969 463.570312 C 185.195312 461.832031 186.257812 460.5 187.417969 460.601562 C 188.578125 460.703125 189.398438 462.199219 189.246094 463.9375 Z M 189.246094 463.9375 " fill-opacity="1" fill-rule="nonzero"/><path fill="#253036" d="M 155.902344 451.339844 L 142.050781 448.363281 L 142.417969 446.648438 L 156.273438 449.621094 Z M 155.902344 451.339844 " fill-opacity="1" fill-rule="evenodd"/><path fill="#253036" d="M 166.855469 482.636719 C 167.035156 482.1875 167.546875 481.972656 167.996094 482.152344 C 169.914062 482.925781 172.453125 483.316406 174.816406 482.175781 C 175.253906 481.964844 175.78125 482.148438 175.988281 482.585938 C 176.199219 483.019531 176.015625 483.546875 175.578125 483.757812 C 172.605469 485.1875 169.519531 484.65625 167.339844 483.777344 C 166.890625 483.597656 166.671875 483.085938 166.855469 482.636719 Z M 166.855469 482.636719 " fill-opacity="1" fill-rule="evenodd"/><path fill="#253036" d="M 101.75 564.332031 C 102.214844 564.464844 102.484375 564.953125 102.347656 565.417969 C 101.03125 569.957031 98.925781 577.023438 96.882812 583.488281 C 94.851562 589.914062 92.855469 595.84375 91.761719 598.027344 L 91.660156 598.234375 L 91.464844 598.363281 C 89.101562 599.9375 85.78125 600.253906 82.136719 599.859375 C 78.460938 599.460938 74.292969 598.332031 70.089844 596.835938 C 61.679688 593.84375 52.984375 589.339844 47.542969 586.105469 C 47.125 585.855469 46.988281 585.320312 47.238281 584.902344 C 47.484375 584.484375 48.023438 584.347656 48.441406 584.597656 C 53.816406 587.792969 62.40625 592.238281 70.679688 595.183594 C 74.816406 596.65625 78.839844 597.738281 82.324219 598.113281 C 85.714844 598.480469 88.449219 598.15625 90.296875 597.027344 C 91.335938 594.832031 93.226562 589.230469 95.207031 582.957031 C 97.246094 576.511719 99.347656 569.457031 100.664062 564.929688 C 100.800781 564.464844 101.285156 564.195312 101.75 564.332031 Z M 101.75 564.332031 " fill-opacity="1" fill-rule="evenodd"/><path fill="#253036" d="M 700.664062 648.515625 C 707.449219 619.164062 716.933594 587.710938 722.628906 570.4375 C 726.101562 594.730469 718.976562 633.292969 711.402344 663.429688 C 727.71875 641.789062 762.457031 597.984375 770.878906 595.878906 C 757.058594 625.414062 724.550781 687.992188 705.082031 702.03125 L 670.871094 695.011719 C 659.640625 690.800781 623.496094 625.414062 606.828125 593.246094 C 616.652344 596.753906 647.847656 636.816406 662.21875 656.410156 C 658.433594 627.464844 655.558594 589.34375 654.199219 566.050781 C 661.21875 573.769531 674.824219 621.320312 680.746094 644.128906 C 684.199219 612.871094 691.332031 565.425781 695.433594 539.730469 C 702.453125 555.171875 701.84375 618.6875 700.664062 648.515625 Z M 700.664062 648.515625 " fill-opacity="1" fill-rule="nonzero"/><path fill="#fbd50a" d="M 686.628906 653.777344 C 693.414062 624.429688 702.894531 592.972656 708.59375 575.699219 C 712.0625 599.992188 704.941406 638.554688 697.367188 668.691406 C 713.683594 647.054688 748.421875 603.246094 756.84375 601.140625 C 743.023438 630.675781 710.515625 693.257812 691.046875 707.292969 L 656.832031 700.277344 C 645.601562 696.066406 609.457031 630.675781 592.789062 598.507812 C 602.617188 602.019531 633.8125 642.082031 648.183594 661.675781 C 644.394531 632.726562 641.519531 594.605469 640.164062 571.3125 C 647.183594 579.035156 660.785156 626.582031 666.710938 649.394531 C 670.160156 618.132812 677.292969 570.691406 681.398438 544.996094 C 688.414062 560.433594 687.808594 623.949219 686.628906 653.777344 Z M 686.628906 653.777344 " fill-opacity="1" fill-rule="nonzero"/><path fill="#253036" d="M 640.164062 693.257812 L 727.894531 693.257812 L 711.578125 776.398438 C 711.253906 778.042969 709.8125 779.230469 708.136719 779.230469 L 659.921875 779.230469 C 658.246094 779.230469 656.800781 778.042969 656.476562 776.398438 Z M 640.164062 693.257812 " fill-opacity="1" fill-rule="nonzero"/></svg>