<svg width="471" height="530" viewBox="0 0 471 530" fill="none" xmlns="http://www.w3.org/2000/svg">
<mask id="mask0_504_1159" style="mask-type:luminance" maskUnits="userSpaceOnUse" x="1" y="0" width="470" height="319">
<path d="M1.94324 0H470.087V318.201H1.94324V0Z" fill="white"/>
</mask>
<g mask="url(#mask0_504_1159)">
<path d="M2.64136 13.3978C2.64136 6.0275 8.61539 0.0534668 15.9827 0.0534668H456.321C463.688 0.0534668 469.662 6.0275 469.662 13.3978V304.287C469.662 311.654 463.688 317.628 456.321 317.628H15.9827C8.61539 317.628 2.64136 311.654 2.64136 304.287V13.3978Z" fill="black"/>
</g>
<mask id="mask1_504_1159" style="mask-type:luminance" maskUnits="userSpaceOnUse" x="1" y="0" width="470" height="27">
<path d="M1.94324 0.314941H470.087V26.9322H1.94324V0.314941Z" fill="white"/>
</mask>
<g mask="url(#mask1_504_1159)">
<path d="M2.43933 14.0068C2.43933 6.63651 8.41337 0.662476 15.7836 0.662476H456.558C463.925 0.662476 469.899 6.63651 469.899 14.0068V26.8401H2.43933V14.0068Z" fill="#253036"/>
</g>
<path d="M33.3315 14.1672C33.3315 17.2865 30.9401 19.8145 27.9932 19.8145C25.0463 19.8145 22.6549 17.2865 22.6549 14.1672C22.6549 11.051 25.0463 8.52295 27.9932 8.52295C30.9401 8.52295 33.3315 11.051 33.3315 14.1672Z" fill="#FBD50A"/>
<path d="M50.6772 14.1672C50.6772 17.2865 48.2888 19.8145 45.3389 19.8145C42.392 19.8145 40.0006 17.2865 40.0006 14.1672C40.0006 11.051 42.392 8.52295 45.3389 8.52295C48.2888 8.52295 50.6772 11.051 50.6772 14.1672Z" fill="#FBD50A"/>
<path d="M68.0231 14.1672C68.0231 17.2865 65.6347 19.8145 62.6848 19.8145C59.7379 19.8145 57.3495 17.2865 57.3495 14.1672C57.3495 11.051 59.7379 8.52295 62.6848 8.52295C65.6347 8.52295 68.0231 11.051 68.0231 14.1672Z" fill="#FBD50A"/>
<path d="M177.439 105.468C177.439 131.996 155.934 153.504 129.403 153.504C102.875 153.504 81.3673 131.996 81.3673 105.468C81.3673 78.9369 102.875 57.4292 129.403 57.4292C155.934 57.4292 177.439 78.9369 177.439 105.468Z" fill="#F2F2F2"/>
<path d="M53.345 194.868C53.345 188.974 58.1248 184.194 64.0216 184.194H194.788C200.682 184.194 205.462 188.974 205.462 194.868C205.462 200.764 200.682 205.544 194.788 205.544H64.0216C58.1248 205.544 53.345 200.764 53.345 194.868Z" fill="#F2F2F2"/>
<path d="M53.345 232.23C53.345 226.336 58.1248 221.556 64.0216 221.556H194.788C200.682 221.556 205.462 226.336 205.462 232.23C205.462 238.127 200.682 242.907 194.788 242.907H64.0216C58.1248 242.907 53.345 238.127 53.345 232.23Z" fill="#F2F2F2"/>
<path d="M93.3749 276.93C93.3749 266.981 101.443 258.918 111.389 258.918H146.084C156.032 258.918 164.098 266.981 164.098 276.93C164.098 286.881 156.032 294.944 146.084 294.944H111.389C101.443 294.944 93.3749 286.881 93.3749 276.93Z" fill="#253036"/>
<path fill-rule="evenodd" clip-rule="evenodd" d="M124.801 272.646C125.323 272.129 126.167 272.132 126.687 272.658L130.956 276.977L126.675 281.216C126.152 281.733 125.306 281.73 124.789 281.204C124.269 280.682 124.275 279.838 124.798 279.318L125.825 278.302H114.391C113.655 278.302 113.057 277.705 113.057 276.968C113.057 276.232 113.655 275.631 114.391 275.631H125.876L124.786 274.532C124.269 274.009 124.275 273.163 124.801 272.646Z" fill="#FBD50A"/>
<path fill-rule="evenodd" clip-rule="evenodd" d="M118.73 265.588H141.414V288.272H118.73V281.935C118.73 281.199 119.327 280.601 120.063 280.601C120.8 280.601 121.397 281.199 121.397 281.935V285.604H138.743V268.258H121.397V271.927C121.397 272.664 120.8 273.261 120.063 273.261C119.327 273.261 118.73 272.664 118.73 271.927V265.588Z" fill="#FBD50A"/>
<path d="M145.415 89.4561C145.415 98.2968 138.247 105.468 129.403 105.468C120.559 105.468 113.391 98.2968 113.391 89.4561C113.391 80.6124 120.559 73.4412 129.403 73.4412C138.247 73.4412 145.415 80.6124 145.415 89.4561Z" fill="#253036"/>
<path d="M129.403 113.474C111.642 113.474 96.7703 123.435 92.9797 136.785C101.788 147.022 114.838 153.504 129.403 153.504C143.968 153.504 157.019 147.022 165.83 136.785C162.036 123.435 147.168 113.474 129.403 113.474Z" fill="#253036"/>
<path d="M68.4242 201.54L68.5786 196.953L64.9544 199.413L64.0216 197.663L67.8389 195.536L64.0216 193.409L64.9544 191.659L68.5786 194.116L68.4242 189.532H70.2927L70.1382 194.116L73.7595 191.659L74.6953 193.409L70.8779 195.536L74.6953 197.663L73.7595 199.413L70.1382 196.953L70.2927 201.54H68.4242Z" fill="#253036"/>
<path d="M68.4242 238.902L68.5786 234.315L64.9544 236.775L64.0216 235.025L67.8389 232.898L64.0216 230.771L64.9544 229.019L68.5786 231.478L68.4242 226.892H70.2927L70.1382 231.478L73.7595 229.019L74.6953 230.771L70.8779 232.898L74.6953 235.025L73.7595 236.775L70.1382 234.315L70.2927 238.902H68.4242Z" fill="#253036"/>
<path d="M84.4361 201.54L84.5906 196.953L80.9664 199.413L80.0336 197.663L83.8509 195.536L80.0336 193.409L80.9664 191.659L84.5906 194.116L84.4361 189.532H86.3047L86.1502 194.116L89.7744 191.659L90.7072 193.409L86.8899 195.536L90.7072 197.663L89.7744 199.413L86.1502 196.953L86.3047 201.54H84.4361Z" fill="#253036"/>
<path d="M84.4361 238.902L84.5906 234.315L80.9664 236.775L80.0336 235.025L83.8509 232.898L80.0336 230.771L80.9664 229.019L84.5906 231.478L84.4361 226.892H86.3047L86.1502 231.478L89.7744 229.019L90.7072 230.771L86.8899 232.898L90.7072 235.025L89.7744 236.775L86.1502 234.315L86.3047 238.902H84.4361Z" fill="#253036"/>
<path d="M100.448 201.54L100.603 196.953L96.9813 199.413L96.0455 197.663L99.8629 195.536L96.0455 193.409L96.9813 191.659L100.603 194.116L100.448 189.532H102.317L102.162 194.116L105.786 191.659L106.719 193.409L102.902 195.536L106.719 197.663L105.786 199.413L102.162 196.953L102.317 201.54H100.448Z" fill="#253036"/>
<path d="M100.448 238.902L100.603 234.315L96.9813 236.775L96.0455 235.025L99.8629 232.898L96.0455 230.771L96.9813 229.019L100.603 231.478L100.448 226.892H102.317L102.162 231.478L105.786 229.019L106.719 230.771L102.902 232.898L106.719 235.025L105.786 236.775L102.162 234.315L102.317 238.902H100.448Z" fill="#253036"/>
<path d="M116.46 201.54L116.615 196.953L112.993 199.413L112.057 197.663L115.875 195.536L112.057 193.409L112.993 191.659L116.615 194.116L116.46 189.532H118.329L118.174 194.116L121.798 191.659L122.731 193.409L118.914 195.536L122.731 197.663L121.798 199.413L118.174 196.953L118.329 201.54H116.46Z" fill="#253036"/>
<path d="M132.472 201.54L132.626 196.953L129.005 199.413L128.069 197.663L131.887 195.536L128.069 193.409L129.005 191.659L132.626 194.116L132.472 189.532H134.341L134.186 194.116L137.81 191.659L138.743 193.409L134.926 195.536L138.743 197.663L137.81 199.413L134.186 196.953L134.341 201.54H132.472Z" fill="#253036"/>
<path d="M116.46 238.902L116.615 234.315L112.993 236.775L112.057 235.025L115.875 232.898L112.057 230.771L112.993 229.019L116.615 231.478L116.46 226.892H118.329L118.174 231.478L121.798 229.019L122.731 230.771L118.914 232.898L122.731 235.025L121.798 236.775L118.174 234.315L118.329 238.902H116.46Z" fill="#253036"/>
<path d="M265.508 62.0991C265.508 55.8369 270.585 50.7571 276.85 50.7571H439.64C445.905 50.7571 450.982 55.8369 450.982 62.0991C450.982 68.3643 445.905 73.4412 439.64 73.4412H276.85C270.585 73.4412 265.508 68.3643 265.508 62.0991Z" fill="#F2F2F2"/>
<path fill-rule="evenodd" clip-rule="evenodd" d="M278.597 56.7638C276.187 56.7638 274.179 58.8224 274.179 61.4337C274.179 64.0449 276.187 66.1036 278.597 66.1036C279.904 66.1036 281.083 65.5035 281.897 64.5351C282.589 63.7122 283.014 62.6279 283.014 61.4337C283.014 58.8224 281.006 56.7638 278.597 56.7638ZM272.845 61.4337C272.845 58.1481 275.391 55.4299 278.597 55.4299C281.805 55.4299 284.348 58.1481 284.348 61.4337C284.348 62.7229 283.959 63.9231 283.29 64.9034L287.33 68.9703L286.386 69.909L282.42 65.9194C281.407 66.8611 280.07 67.4374 278.597 67.4374C275.391 67.4374 272.845 64.7192 272.845 61.4337Z" fill="#253036"/>
<path d="M265.508 109.47C265.508 107.259 267.299 105.468 269.509 105.468H446.978C449.191 105.468 450.982 107.259 450.982 109.47V164.178C450.982 166.391 449.191 168.182 446.978 168.182H269.509C267.299 168.182 265.508 166.391 265.508 164.178V109.47Z" fill="#253036"/>
<path d="M265.508 188.195C265.508 185.985 267.299 184.194 269.509 184.194H340.232C342.443 184.194 344.234 185.985 344.234 188.195V290.942C344.234 293.153 342.443 294.944 340.232 294.944H269.509C267.299 294.944 265.508 293.153 265.508 290.942V188.195Z" fill="#F2F2F2"/>
<path d="M372.256 188.195C372.256 185.985 374.048 184.194 376.258 184.194H446.978C449.191 184.194 450.982 185.985 450.982 188.195V290.942C450.982 293.153 449.191 294.944 446.978 294.944H376.258C374.048 294.944 372.256 293.153 372.256 290.942V188.195Z" fill="#F2F2F2"/>
<path d="M265.508 188.195C265.508 185.985 267.299 184.194 269.509 184.194H340.232C342.443 184.194 344.234 185.985 344.234 188.195V254.914H265.508V188.195Z" fill="#253036"/>
<path d="M372.256 188.195C372.256 185.985 374.048 184.194 376.258 184.194H446.978C449.191 184.194 450.982 185.985 450.982 188.195V254.914H372.256V188.195Z" fill="#253036"/>
<path fill-rule="evenodd" clip-rule="evenodd" d="M298.2 54.7616H299.534V69.4397H298.2V54.7616Z" fill="#253036"/>
<path d="M282.227 503.988C278.689 500.165 256.772 502.651 248.67 501.071L247.242 473.755C247.907 473.72 273.574 479.055 277.082 469.519C286.561 477.038 283.644 497.01 282.227 503.988Z" fill="#FCBFBC"/>
<path d="M265.707 476.462C267.683 481.363 270.172 479.524 274.361 483.841C282.307 492.022 267.302 496.846 272.029 502.41C274.976 505.88 290.506 505.334 298.269 504.089C300.36 490.896 302.443 465.553 302.484 448.308C302.499 443.128 302.749 437.002 298.783 433.684C292.874 428.744 283.846 443.805 279.328 453.837C278.074 455.536 276.794 457.176 275.594 458.685L275.252 459.116C274.444 460.129 273.627 461.112 272.825 462.069C271.598 463.53 270.41 464.926 269.352 466.272C266.388 470.039 264.465 473.381 265.707 476.462Z" fill="#FBD50A"/>
<path fill-rule="evenodd" clip-rule="evenodd" d="M266.569 471.878C265.915 473.464 265.79 474.881 266.325 476.212C266.795 477.376 267.279 478.101 267.778 478.606C268.277 479.114 268.829 479.438 269.501 479.774C269.679 479.863 269.866 479.952 270.062 480.044C271.343 480.656 272.938 481.417 274.839 483.374C276.933 485.531 277.593 487.56 277.346 489.497C277.106 491.371 276.024 493.038 274.937 494.502C274.673 494.865 274.417 495.195 274.171 495.515C273.886 495.89 273.606 496.252 273.324 496.641C272.825 497.325 272.403 497.969 272.124 498.587C271.845 499.202 271.717 499.763 271.762 500.292C271.806 500.815 272.023 501.371 272.534 501.977L271.518 502.841C270.852 502.057 270.502 501.246 270.434 500.405C270.362 499.576 270.57 498.783 270.909 498.035C271.248 497.292 271.729 496.561 272.246 495.854C272.516 495.48 272.828 495.076 273.134 494.675C273.389 494.345 273.639 494.015 273.868 493.709C274.946 492.251 275.831 490.831 276.024 489.327C276.209 487.884 275.763 486.241 273.883 484.304C272.154 482.525 270.757 481.856 269.492 481.25C269.293 481.155 269.1 481.063 268.907 480.968C268.188 480.609 267.481 480.207 266.827 479.542C266.174 478.88 265.603 477.994 265.086 476.711C264.382 474.958 264.596 473.164 265.336 471.37C266.067 469.587 267.338 467.751 268.826 465.859C269.724 464.718 270.716 463.536 271.735 462.324C271.928 462.098 272.118 461.869 272.311 461.641C273.113 460.684 273.927 459.704 274.729 458.7L275.071 458.272C275.071 458.272 275.071 458.272 275.071 458.269M275.499 459.873C274.857 460.672 274.209 461.454 273.574 462.214C273.597 462.309 273.627 462.407 273.654 462.511C273.689 462.642 273.728 462.784 273.77 462.936L273.782 462.986C273.826 463.159 273.877 463.343 273.93 463.542C274.141 464.329 274.417 465.286 274.777 466.251C275.133 467.217 275.564 468.167 276.081 468.946C276.601 469.73 277.168 470.282 277.78 470.544L277.257 471.771C276.307 471.367 275.558 470.574 274.967 469.682C274.373 468.785 273.9 467.731 273.523 466.715C273.146 465.696 272.858 464.692 272.641 463.89C272.602 463.738 272.561 463.595 272.525 463.459C271.675 464.469 270.861 465.443 270.107 466.391C270.125 466.435 270.142 466.483 270.16 466.533C270.437 467.291 270.927 468.649 271.607 470.089C272.044 471.019 272.546 471.952 273.092 472.736C273.645 473.529 274.206 474.118 274.747 474.424L274.091 475.585C273.294 475.137 272.593 474.355 271.996 473.5C271.393 472.629 270.855 471.622 270.401 470.66C269.872 469.54 269.438 468.432 269.141 467.636C268.013 469.145 267.115 470.55 266.569 471.878M276.414 458.726C276.642 459.131 276.862 459.636 277.079 460.149C277.153 460.322 277.228 460.5 277.302 460.678C277.563 461.305 277.845 461.976 278.166 462.651C278.579 463.515 279.04 464.35 279.571 465.039C280.106 465.731 280.685 466.242 281.324 466.516L280.801 467.743C279.877 467.35 279.129 466.649 278.517 465.856C277.902 465.057 277.391 464.127 276.96 463.224C276.627 462.517 276.33 461.807 276.066 461.177C275.992 461.002 275.92 460.833 275.852 460.672C275.724 460.369 275.606 460.102 275.499 459.873M276.414 458.726C277.254 457.663 278.134 456.537 279.013 455.373C279.343 456.605 279.815 458.073 280.412 459.442C280.834 460.411 281.33 461.353 281.894 462.131C282.45 462.897 283.115 463.563 283.9 463.895L284.423 462.669C283.959 462.47 283.469 462.027 282.973 461.344C282.486 460.675 282.037 459.829 281.633 458.908C280.873 457.164 280.32 455.23 280.026 453.911C282.275 448.953 285.59 442.845 289.051 438.564C290.812 436.387 292.565 434.741 294.181 433.933C294.983 433.532 295.726 433.351 296.4 433.384C297.069 433.419 297.716 433.663 298.355 434.195L299.208 433.17C298.37 432.466 297.446 432.1 296.469 432.053C295.503 432.005 294.532 432.267 293.587 432.739C291.71 433.678 289.814 435.499 288.014 437.724C284.42 442.171 281.018 448.466 278.749 453.498M292.482 470.113C291.635 481.743 290.248 493.335 289.14 501.023L287.818 500.83C288.923 493.172 290.307 481.61 291.151 470.015C291.998 458.406 292.301 446.823 291.273 439.093L292.595 438.918C293.644 446.793 293.329 458.498 292.482 470.113Z" fill="#253036"/>
<path d="M280.983 526.268C278.392 521.744 256.477 519.236 248.941 515.874L253.691 488.935C254.347 489.051 278.157 500.025 283.722 491.523C291.267 500.982 283.929 519.786 280.983 526.268Z" fill="#FCBFBC"/>
<mask id="mask2_504_1159" style="mask-type:luminance" maskUnits="userSpaceOnUse" x="270" y="459" width="46" height="71">
<path d="M270.264 459.199H315.133V529.8H270.264V459.199Z" fill="white"/>
</mask>
<g mask="url(#mask2_504_1159)">
<path d="M271.075 495.729C271.895 500.949 274.738 499.719 277.848 504.864C283.751 514.626 268.045 515.951 271.396 522.433C273.487 526.479 288.742 529.438 296.587 529.972C301.593 517.588 309.323 493.362 313.244 476.568C314.423 471.524 316.045 465.61 312.926 461.486C308.28 455.343 296.097 467.986 289.437 476.747C287.833 478.122 286.217 479.429 284.708 480.632L284.277 480.974C283.264 481.779 282.245 482.554 281.247 483.306C279.726 484.453 278.249 485.549 276.919 486.621C273.184 489.625 270.558 492.447 271.075 495.729Z" fill="#FBD50A"/>
</g>
<path fill-rule="evenodd" clip-rule="evenodd" d="M272.947 491.454C271.955 492.857 271.512 494.208 271.735 495.622C271.931 496.864 272.237 497.678 272.611 498.284C272.985 498.89 273.449 499.333 274.028 499.808C274.183 499.936 274.346 500.063 274.512 500.197C275.623 501.082 277.008 502.182 278.419 504.517C279.975 507.089 280.163 509.216 279.485 511.046C278.829 512.823 277.4 514.201 276.013 515.386C275.671 515.674 275.35 515.942 275.038 516.2C274.673 516.5 274.319 516.791 273.957 517.103C273.315 517.659 272.763 518.191 272.353 518.731C271.94 519.266 271.69 519.783 271.616 520.312C271.539 520.831 271.625 521.42 271.99 522.127L270.805 522.739C270.33 521.824 270.172 520.953 270.294 520.121C270.413 519.299 270.793 518.571 271.289 517.92C271.788 517.27 272.421 516.67 273.086 516.096C273.434 515.793 273.826 515.466 274.215 515.146C274.536 514.881 274.857 514.617 275.148 514.37C276.526 513.194 277.709 512.006 278.232 510.583C278.737 509.219 278.674 507.52 277.278 505.209C275.995 503.085 274.783 502.119 273.686 501.249C273.514 501.109 273.348 500.975 273.178 500.839C272.558 500.328 271.963 499.775 271.473 498.982C270.986 498.189 270.633 497.2 270.416 495.83C270.122 493.965 270.737 492.265 271.86 490.682C272.974 489.114 274.622 487.61 276.5 486.101C277.632 485.189 278.864 484.262 280.133 483.309C280.368 483.131 280.608 482.952 280.846 482.771C281.841 482.02 282.854 481.25 283.861 480.451L284.292 480.109M284.348 481.767C283.543 482.403 282.735 483.015 281.945 483.615C281.948 483.713 281.954 483.817 281.96 483.924C281.963 484.057 281.969 484.206 281.975 484.363V484.414C281.981 484.592 281.987 484.785 281.993 484.987C282.025 485.804 282.079 486.799 282.209 487.818C282.34 488.843 282.548 489.865 282.875 490.739C283.205 491.621 283.635 492.286 284.17 492.675L283.386 493.754C282.551 493.148 281.998 492.206 281.624 491.208C281.247 490.198 281.024 489.063 280.884 487.991C280.748 486.912 280.691 485.867 280.662 485.038C280.656 484.883 280.65 484.735 280.647 484.592C279.589 485.388 278.576 486.152 277.629 486.906C277.635 486.954 277.64 487.004 277.646 487.055C277.747 487.86 277.92 489.289 278.258 490.848C278.475 491.85 278.754 492.871 279.111 493.76C279.47 494.66 279.886 495.358 280.344 495.774L279.441 496.76C278.766 496.142 278.258 495.224 277.872 494.256C277.477 493.272 277.18 492.173 276.954 491.131C276.693 489.922 276.518 488.745 276.408 487.902C274.97 489.119 273.779 490.287 272.947 491.454M285.495 480.855C285.629 481.301 285.73 481.844 285.828 482.394C285.86 482.578 285.893 482.765 285.926 482.958C286.039 483.63 286.163 484.346 286.324 485.073C286.529 486.009 286.79 486.927 287.156 487.717C287.521 488.513 287.97 489.143 288.528 489.55L287.744 490.629C286.933 490.037 286.362 489.188 285.944 488.276C285.522 487.361 285.236 486.339 285.02 485.362C284.85 484.598 284.723 483.841 284.607 483.166C284.574 482.979 284.544 482.798 284.512 482.626C284.455 482.302 284.402 482.014 284.348 481.767M285.495 480.855C286.555 480.008 287.667 479.111 288.783 478.176C288.828 479.45 288.959 480.986 289.232 482.45C289.428 483.493 289.698 484.521 290.073 485.406C290.441 486.277 290.94 487.073 291.629 487.575L292.414 486.496C292.007 486.202 291.629 485.659 291.3 484.883C290.976 484.12 290.729 483.193 290.545 482.207C290.195 480.338 290.088 478.33 290.099 476.975C293.406 472.65 298.013 467.445 302.348 464.053C304.552 462.327 306.628 461.121 308.39 460.696C309.26 460.485 310.024 460.476 310.674 460.66C311.313 460.845 311.892 461.228 312.394 461.887L313.458 461.082C312.795 460.209 311.979 459.644 311.037 459.377C310.107 459.113 309.103 459.151 308.075 459.398C306.037 459.891 303.779 461.24 301.525 463.001C297.021 466.525 292.292 471.895 288.947 476.286M298.593 495.566C295.153 506.706 291.193 517.691 288.382 524.931L287.138 524.447C289.939 517.234 293.887 506.275 297.318 495.171C300.755 484.052 303.658 472.831 304.391 465.072L305.719 465.197C304.971 473.105 302.03 484.438 298.593 495.566Z" fill="#253036"/>
<path d="M115.144 399.055C113.811 394.385 113.008 377.972 112.477 376.37C106.247 378.596 96.5985 379.573 94.4625 384.376C94.4625 391.717 94.0348 403.618 97.7986 412.399C99.8009 417.069 129.377 433.749 139.162 435.748L155.174 427.742C149.839 423.474 126.932 403.502 115.144 399.055Z" fill="#FCBFBC"/>
<path d="M259.24 473.779C242.162 471.643 114.464 470.443 62.4237 467.107C58.1519 474.046 55.306 493.57 54.4177 502.467C65.0914 502.467 249.232 513.809 253.236 511.141C261.908 502.467 261.242 485.786 259.24 473.779Z" fill="#253036"/>
<path d="M24.3931 519.813C-10.2985 518.211 0.954469 459.546 10.7399 435.083C22.3018 443.736 49.0349 460.699 63.4457 459.309C95.5112 456.095 128.59 447.836 141.15 449.093C154.28 450.406 236.494 472.769 263.91 491.793C264.977 500.328 252.122 517.81 247.23 521.149C215.874 513.809 161.832 503.801 144.486 491.793C122.604 500.331 59.0877 521.414 24.3931 519.813Z" fill="#253036"/>
<path fill-rule="evenodd" clip-rule="evenodd" d="M223.256 472.721C223.384 472.377 223.767 472.199 224.112 472.329C238.193 477.57 251.169 483.19 260.25 488.647C260.565 488.834 260.669 489.247 260.479 489.562C260.289 489.877 259.879 489.981 259.564 489.788C250.59 484.396 237.706 478.811 223.648 473.58C223.301 473.449 223.126 473.066 223.256 472.721Z" fill="#F2F2F2"/>
<path fill-rule="evenodd" clip-rule="evenodd" d="M144.575 491.042L144.866 491.244C149.168 494.22 155.813 497.102 163.902 499.865C171.979 502.621 181.444 505.244 191.351 507.719C191.708 507.811 191.925 508.174 191.835 508.53C191.746 508.886 191.384 509.103 191.027 509.014C181.105 506.534 171.599 503.902 163.471 501.127C155.534 498.415 148.862 495.554 144.4 492.542C136.723 495.524 124.175 499.966 109.61 504.439C109.259 504.546 108.885 504.35 108.778 503.997C108.668 503.646 108.867 503.272 109.218 503.165C123.964 498.635 136.634 494.14 144.245 491.169L144.575 491.042Z" fill="#F2F2F2"/>
<path d="M93.1138 321.662C88.8419 339.81 69.0958 327.443 58.4192 318.995C48.1911 322.108 24.1257 330.069 20.3915 337.009C16.6544 343.945 5.9362 368.81 1.04349 380.375C4.90538 382.671 10.9359 385.811 16.9099 388.057C15.1156 415.987 -2.79462 450.156 0.375092 483.119C33.0674 447.09 39.0712 475.113 102.454 467.107C107.792 459.101 78.7476 413.563 98.4491 389.715C98.6362 389.489 98.8175 389.26 98.9957 389.029C105.962 386.902 113.603 382.775 117.444 380.375C112.774 337.009 103.434 327.666 93.1138 321.662Z" fill="#253036"/>
<path fill-rule="evenodd" clip-rule="evenodd" d="M92.5374 321.327C92.7216 321.009 93.1315 320.902 93.4494 321.086C98.6927 324.137 103.713 328.061 107.994 336.712C112.257 345.321 115.768 358.591 118.106 380.304L118.154 380.719L117.797 380.939C113.968 383.334 106.384 387.436 99.3937 389.605C99.2541 389.783 99.1115 389.961 98.966 390.14C94.1653 395.95 92.3116 403.104 92.1809 410.753C92.0532 418.411 93.6514 426.518 95.7101 434.18C96.9518 438.802 98.3451 443.202 99.6225 447.245C100.475 449.936 101.277 452.47 101.951 454.805C102.783 457.696 103.416 460.268 103.669 462.381C103.915 464.46 103.817 466.263 103.009 467.475C102.804 467.784 102.391 467.867 102.085 467.662C101.776 467.457 101.693 467.042 101.898 466.738C102.424 465.951 102.587 464.579 102.344 462.538C102.106 460.539 101.5 458.052 100.668 455.177C100.018 452.916 99.2244 450.406 98.3748 447.72C97.0825 443.636 95.6655 439.147 94.4208 434.527C92.3503 426.821 90.7164 418.572 90.8501 410.732C90.9808 402.887 92.885 395.404 97.9381 389.29C98.1193 389.07 98.2946 388.847 98.4669 388.622C103.3 382.294 104.322 373.917 103.517 364.82C102.762 356.244 100.395 347.145 98.1995 338.699C98.0688 338.188 97.9381 337.68 97.8044 337.175C97.7123 336.819 97.9262 336.453 98.2827 336.361C98.6392 336.269 99.0046 336.483 99.0967 336.84C99.2303 337.354 99.364 337.873 99.5007 338.393C101.69 346.812 104.081 356.012 104.848 364.705C105.597 373.186 104.809 381.296 100.686 387.772C106.823 385.633 113.184 382.214 116.734 380.027C114.405 358.624 110.929 345.651 106.8 337.303C102.661 328.941 97.8549 325.195 92.778 322.239C92.4602 322.055 92.3503 321.645 92.5374 321.327Z" fill="#253036"/>
<path d="M71.0951 453.763C28.3975 441.087 3.71118 421.872 1.04351 411.73C-1.50533 402.049 2.5645 389.251 4.92619 382.558C11.6191 386.138 21.0986 390.333 27.8331 390.811C26.7429 396.134 25.7625 404.111 24.3931 406.395C57.7508 425.075 49.7478 429.079 81.1033 443.754C85.996 444.423 96.3162 446.826 98.4491 451.095C96.0042 455.319 91.5126 464.837 82.4372 461.103C79.2348 462.704 72.6547 456.21 71.0951 453.763Z" fill="#FCBFBC"/>
<path d="M197.016 388.387L104.685 394.818C102.798 394.946 101.245 396.333 100.942 398.166L90.7046 459.436L44.5075 462.657C44.4333 462.66 44.3857 462.74 44.4214 462.808C46.2335 466.334 49.6438 468.77 53.577 469.344L56.42 469.757C56.5418 469.774 56.6636 469.78 56.7824 469.771L176.112 461.462C181.168 461.109 185.639 458.216 188.045 453.878C188.496 453.344 188.811 452.693 188.933 451.971L199.167 390.698C199.381 389.424 198.326 388.295 197.016 388.387Z" fill="#3E3D37"/>
<path d="M58.1549 319.001C68.9504 315.867 66.7105 298.978 66.7105 288.97C67.8542 292.764 76.0533 311.396 90.3779 312.896C90.2382 315.207 92.389 319.568 94.3021 322.821C95.428 324.734 95.8112 327.125 94.6111 328.991C86.4506 341.682 67.2897 328.058 58.1549 319.001Z" fill="#FCBFBC"/>
<path d="M72.7142 275.543C89.8966 275.165 96.5687 263.354 97.8937 257.041C101.634 258.458 109.153 263.277 109.316 271.232C109.518 281.178 111.217 310.846 94.4031 312.86C93.0128 313.03 91.6671 313.032 90.3749 312.896C76.0532 311.396 67.8512 292.764 66.7075 288.97C58.5351 284.232 58.5292 275.106 62.0049 272.192C64.7854 269.86 70.302 273.454 72.7142 275.543Z" fill="#FCBFBC"/>
<path fill-rule="evenodd" clip-rule="evenodd" d="M64.0101 275.881C64.1735 275.549 64.5745 275.415 64.9043 275.578C65.742 275.991 66.9689 276.814 67.9849 277.964C69.0038 279.116 69.8594 280.658 69.8237 282.491C69.8148 282.859 69.5118 283.151 69.1434 283.145C68.7751 283.136 68.481 282.833 68.4899 282.464C68.5196 281.08 67.872 279.853 66.9867 278.849C66.0985 277.845 65.0172 277.123 64.3131 276.772C63.9834 276.612 63.8467 276.211 64.0101 275.881ZM66.5174 288.334C66.8679 288.227 67.2422 288.426 67.3491 288.78C67.8987 290.604 70.201 296.138 74.1371 301.393C78.0763 306.657 83.5601 311.512 90.4462 312.233C90.8116 312.272 91.0789 312.602 91.0403 312.967C91.0017 313.333 90.6749 313.6 90.3095 313.561C82.8709 312.78 77.093 307.567 73.0677 302.193C69.0335 296.807 66.6659 291.13 66.0718 289.163C65.9648 288.813 66.1638 288.438 66.5174 288.334Z" fill="#253036"/>
<path d="M72.7142 275.543C89.8966 275.165 96.5688 263.354 97.8937 257.041C101.634 258.458 109.156 263.277 109.316 271.232C109.521 281.178 111.217 310.846 94.4061 312.86C93.0129 313.03 91.6701 313.033 90.3779 312.896C90.2412 315.174 91.7176 318.424 92.4484 321.662C100.258 326.267 105.802 335.485 108.46 340.342C109.666 342.549 111.28 347.602 112.875 352.739L120.973 342.059C125.821 334.214 122.289 326.638 117.684 319.728C112.94 312.605 118.377 308.787 121.424 301.539C124.472 294.294 119.951 287.725 116.906 282.631C113.864 277.533 115.441 271.77 115.566 258.093C115.664 247.155 99.1859 240.827 90.9334 239.033C81.5223 237.227 61.1731 238.148 55.0773 256.29C50.2885 271.167 55.5437 273.006 43.7204 275.691C29.2086 278.983 42.2766 292.199 32.3486 298.31C26.5469 302.273 15.7039 318.787 27.7322 331.002C43.7204 326.332 57.7539 320.994 57.7539 320.994C68.5463 317.86 67.0194 297.674 66.7105 288.97C58.5352 284.232 58.5292 275.106 62.0049 272.192C64.7855 269.857 70.302 273.454 72.7142 275.543Z" fill="#253036"/>
<path fill-rule="evenodd" clip-rule="evenodd" d="M85.396 275.982C84.1216 277.592 83.1977 279.927 82.96 282.61C82.7253 285.295 83.2333 287.758 84.2077 289.561C85.1851 291.376 86.5843 292.455 88.126 292.591C89.6678 292.725 91.2334 291.905 92.5137 290.289C93.7852 288.679 94.712 286.344 94.9467 283.661C95.1814 280.976 94.6734 278.516 93.699 276.707C92.7217 274.895 91.3225 273.817 89.7807 273.68C88.2389 273.546 86.6734 274.366 85.396 275.982ZM84.3503 275.156C85.803 273.318 87.7636 272.165 89.8966 272.352C92.0295 272.539 93.7644 274.013 94.8754 276.074C95.8676 277.916 96.4053 280.281 96.331 282.83C96.7677 282.741 97.2609 282.672 97.754 282.669C98.2531 282.663 98.8145 282.723 99.3285 282.925C99.6493 280.732 100.448 278.784 101.548 277.349C102.78 275.739 104.465 274.699 106.315 274.862C108.166 275.023 109.643 276.339 110.578 278.139C111.517 279.945 111.966 282.328 111.746 284.862C111.523 287.396 110.668 289.662 109.429 291.278C108.193 292.888 106.512 293.928 104.661 293.768C102.846 293.607 101.387 292.336 100.451 290.589C99.5483 288.908 99.0789 286.712 99.1918 284.357C98.8769 284.119 98.3897 283.997 97.7659 284.003C97.2223 284.006 96.6667 284.107 96.23 284.226C95.9152 286.947 94.9408 289.371 93.5594 291.118C92.1067 292.954 90.1431 294.106 88.0102 293.919C85.8772 293.732 84.1453 292.259 83.0343 290.197C81.9173 288.129 81.3766 285.399 81.6321 282.494C81.8846 279.589 82.8917 276.995 84.3503 275.156ZM102.608 278.16C101.545 279.547 100.763 281.561 100.561 283.884C100.552 283.967 100.546 284.054 100.541 284.137C100.386 286.4 100.823 288.459 101.625 289.959C102.436 291.465 103.562 292.33 104.777 292.437C106.015 292.547 107.302 291.864 108.368 290.467C109.432 289.083 110.213 287.066 110.415 284.746C110.617 282.426 110.198 280.305 109.393 278.754C108.582 277.194 107.438 276.297 106.2 276.19C104.961 276.083 103.675 276.767 102.608 278.16Z" fill="#253036"/>
<path d="M94.1297 286.249C94.0139 287.574 93.2059 288.584 92.3236 288.507C91.4413 288.429 90.8204 287.295 90.9363 285.973C91.0521 284.648 91.8601 283.635 92.7424 283.715C93.6247 283.792 94.2486 284.927 94.1297 286.249Z" fill="#253036"/>
<path d="M108.466 288.04C108.35 289.365 107.539 290.375 106.657 290.298C105.775 290.221 105.154 289.086 105.27 287.761C105.386 286.439 106.194 285.426 107.076 285.503C107.958 285.581 108.582 286.718 108.466 288.04Z" fill="#253036"/>
<path fill-rule="evenodd" clip-rule="evenodd" d="M83.1086 278.46L72.5746 276.196L72.8538 274.892L83.3908 277.153L83.1086 278.46Z" fill="#253036"/>
<path fill-rule="evenodd" clip-rule="evenodd" d="M91.4383 302.261C91.5749 301.919 91.9641 301.756 92.3057 301.892C93.7643 302.481 95.6952 302.778 97.4925 301.91C97.8252 301.75 98.2263 301.889 98.3837 302.222C98.5441 302.552 98.4045 302.953 98.0718 303.113C95.8111 304.201 93.4643 303.797 91.8066 303.128C91.465 302.992 91.2986 302.602 91.4383 302.261Z" fill="#253036"/>
<path fill-rule="evenodd" clip-rule="evenodd" d="M41.926 364.39C42.2795 364.491 42.4845 364.862 42.3806 365.215C41.3794 368.667 39.7782 374.041 38.2246 378.958C36.6798 383.845 35.1618 388.354 34.33 390.015L34.2528 390.172L34.1042 390.27C32.307 391.467 29.7819 391.708 27.0103 391.408C24.2148 391.105 21.0451 390.246 17.8487 389.109C11.4528 386.833 4.84008 383.408 0.701922 380.948C0.384059 380.758 0.280085 380.351 0.470209 380.033C0.657362 379.715 1.06732 379.611 1.38518 379.801C5.47283 382.232 12.0054 385.612 18.2973 387.852C21.4432 388.972 24.503 389.795 27.1529 390.08C29.7314 390.359 31.8109 390.113 33.216 389.254C34.0062 387.585 35.444 383.325 36.9502 378.554C38.5008 373.652 40.0991 368.287 41.1002 364.844C41.2042 364.491 41.5725 364.286 41.926 364.39Z" fill="#253036"/>
<path d="M397.584 428.411C402.744 406.089 409.957 382.169 414.288 369.033C416.929 387.507 411.51 416.834 405.75 439.753C418.159 423.295 444.577 389.982 450.982 388.381C440.472 410.842 415.75 458.432 400.944 469.109L374.927 463.771C366.386 460.568 338.898 410.842 326.222 386.379C333.694 389.046 357.417 419.514 368.347 434.414C365.468 412.402 363.282 383.411 362.248 365.697C367.586 371.567 377.933 407.729 382.436 425.075C385.063 401.303 390.487 365.221 393.606 345.68C398.945 357.423 398.481 405.727 397.584 428.411Z" fill="#253036"/>
<path d="M386.91 432.412C392.07 410.094 399.28 386.171 403.615 373.034C406.252 391.509 400.837 420.836 395.077 443.754C407.485 427.3 433.904 393.984 440.308 392.382C429.798 414.844 405.076 462.437 390.27 473.111L364.25 467.775C355.709 464.573 328.222 414.844 315.546 390.38C323.02 393.051 346.744 423.518 357.673 438.419C354.791 416.403 352.605 387.412 351.574 369.698C356.912 375.571 367.256 411.73 371.763 429.079C374.386 405.305 379.81 369.226 382.933 349.685C388.268 361.425 387.808 409.728 386.91 432.412Z" fill="#FBD50A"/>
<path d="M351.574 462.437H418.293L405.884 525.665C405.637 526.915 404.541 527.819 403.267 527.819H366.6C365.325 527.819 364.226 526.915 363.98 525.665L351.574 462.437Z" fill="#253036"/>
</svg>
