<svg xmlns="http://www.w3.org/2000/svg" xmlns:xlink="http://www.w3.org/1999/xlink" width="1920" zoomAndPan="magnify" viewBox="0 0 1440 809.999993" height="1080" preserveAspectRatio="xMidYMid meet" version="1.0"><defs><clipPath id="ef3cdca5fe"><path d="M 290.894531 185 L 1148.894531 185 L 1148.894531 791.304688 L 290.894531 791.304688 Z M 290.894531 185 " clip-rule="nonzero"/></clipPath></defs><g clip-path="url(#ef3cdca5fe)"><path fill="#000000" d="M 451.355469 247.269531 L 626.632812 247.269531 C 634.039062 247.269531 640.058594 253.269531 640.058594 260.695312 C 640.058594 268.121094 634.058594 274.121094 626.632812 274.121094 L 451.355469 274.121094 C 447.632812 274.121094 444.480469 277.273438 444.480469 280.992188 L 444.480469 590.449219 C 444.480469 594.167969 447.632812 597.320312 451.355469 597.320312 L 988.683594 597.320312 C 992.40625 597.320312 995.558594 594.167969 995.558594 590.449219 L 995.558594 280.976562 C 995.558594 277.257812 992.40625 274.105469 988.683594 274.105469 L 813.355469 274.105469 C 805.949219 274.105469 799.929688 268.105469 799.929688 260.679688 C 799.929688 253.253906 805.933594 247.253906 813.355469 247.253906 L 988.683594 247.253906 C 1007.273438 247.253906 1022.390625 262.371094 1022.390625 280.960938 L 1022.390625 590.414062 C 1022.390625 609.003906 1007.273438 624.121094 988.683594 624.121094 L 451.355469 624.121094 C 432.765625 624.121094 417.648438 609.003906 417.648438 590.414062 L 417.648438 280.976562 C 417.648438 262.386719 432.765625 247.269531 451.355469 247.269531 Z M 1149.109375 689.828125 L 1149.109375 728.496094 C 1149.109375 762.992188 1121.050781 791.050781 1086.554688 791.050781 L 353.484375 791.050781 C 318.972656 791.050781 290.878906 762.992188 290.878906 728.496094 L 290.878906 689.828125 C 290.878906 676.671875 301.589844 665.960938 314.746094 665.960938 L 363.65625 665.960938 L 363.65625 229.050781 C 363.65625 204.878906 383.320312 185.21875 407.488281 185.21875 L 590.945312 185.21875 C 598.355469 185.21875 604.371094 191.21875 604.371094 198.644531 C 604.371094 206.070312 598.371094 212.070312 590.945312 212.070312 L 407.507812 212.070312 C 398.136719 212.070312 390.527344 219.695312 390.527344 229.050781 L 390.527344 665.960938 L 1049.480469 665.960938 L 1049.480469 229.050781 C 1049.480469 219.679688 1041.851562 212.070312 1032.5 212.070312 L 849.09375 212.070312 C 841.683594 212.070312 835.667969 206.070312 835.667969 198.644531 C 835.667969 191.21875 841.667969 185.21875 849.09375 185.21875 L 1032.5 185.21875 C 1056.671875 185.21875 1076.332031 204.878906 1076.332031 229.050781 L 1076.332031 665.960938 L 1125.242188 665.960938 C 1138.398438 665.960938 1149.109375 676.671875 1149.109375 689.828125 Z M 560.992188 692.796875 L 560.992188 702.417969 C 560.992188 707.664062 565.402344 712.089844 570.613281 712.089844 L 869.375 712.089844 C 874.621094 712.089844 879.046875 707.664062 879.046875 702.417969 L 879.046875 692.796875 Z M 1122.273438 692.796875 L 905.898438 692.796875 L 905.898438 702.417969 C 905.898438 722.546875 889.523438 738.921875 869.390625 738.921875 L 570.613281 738.921875 C 550.5 738.921875 534.140625 722.546875 534.140625 702.417969 L 534.140625 692.796875 L 317.714844 692.796875 L 317.714844 728.496094 C 317.714844 748.191406 333.753906 764.199219 353.464844 764.199219 L 1086.554688 764.199219 C 1106.25 764.199219 1122.257812 748.175781 1122.257812 728.496094 L 1122.257812 692.796875 Z M 1122.273438 692.796875 " fill-opacity="1" fill-rule="nonzero"/></g><path fill="#fbd50a" d="M 866.59375 165.707031 C 866.59375 126.5 851.339844 89.691406 823.648438 62.035156 C 796.007812 34.363281 759.199219 19.109375 719.996094 19.109375 C 680.789062 19.109375 643.964844 34.363281 616.339844 62.050781 C 588.648438 89.742188 573.398438 126.550781 573.398438 165.722656 C 573.398438 204.878906 588.648438 241.703125 616.324219 269.378906 C 643.964844 297.066406 680.789062 312.320312 719.996094 312.320312 C 720.5625 312.320312 721.117188 312.289062 721.671875 312.222656 C 760.273438 311.800781 796.429688 296.617188 823.648438 269.394531 C 851.339844 241.738281 866.59375 204.914062 866.59375 165.707031 Z M 719.996094 285.367188 C 719.476562 285.367188 718.972656 285.402344 718.484375 285.453125 C 687.023438 285.066406 657.539062 272.644531 635.3125 250.386719 C 612.6875 227.757812 600.230469 197.6875 600.230469 165.707031 C 600.230469 133.726562 612.6875 103.636719 635.3125 81.011719 C 657.890625 58.398438 687.964844 45.945312 719.996094 45.945312 C 752.027344 45.945312 782.097656 58.398438 804.65625 81.011719 L 804.675781 81.027344 C 827.285156 103.605469 839.738281 133.675781 839.738281 165.707031 C 839.738281 197.738281 827.285156 227.808594 804.65625 250.386719 C 782.113281 272.949219 752.042969 285.367188 719.996094 285.367188 Z M 668.9375 420.300781 C 676.496094 408.667969 680.90625 394.824219 680.90625 379.953125 C 680.90625 339.023438 647.601562 305.71875 606.667969 305.71875 C 565.753906 305.71875 532.480469 339.023438 532.480469 379.953125 C 532.480469 394.824219 536.890625 408.683594 544.449219 420.300781 C 517.460938 435.886719 500.316406 464.703125 500.316406 496.835938 L 500.316406 541.789062 C 500.316406 554.980469 511.042969 565.707031 524.234375 565.707031 L 689.152344 565.707031 C 702.3125 565.707031 713.023438 554.980469 713.023438 541.789062 L 713.023438 496.835938 C 713.039062 464.683594 695.90625 435.871094 668.9375 420.300781 Z M 606.667969 332.554688 C 632.800781 332.554688 654.070312 353.804688 654.070312 379.953125 C 654.070312 406.085938 632.816406 427.355469 606.667969 427.355469 C 580.554688 427.355469 559.316406 406.101562 559.316406 379.953125 C 559.332031 353.804688 580.570312 332.554688 606.667969 332.554688 Z M 686.1875 538.855469 L 527.152344 538.855469 L 527.152344 496.835938 C 527.152344 472.597656 541.953125 450.355469 563.84375 440.53125 C 575.945312 449.128906 590.710938 454.191406 606.652344 454.191406 C 622.609375 454.191406 637.394531 449.113281 649.496094 440.515625 C 671.386719 450.335938 686.152344 472.578125 686.152344 496.835938 L 686.152344 538.855469 Z M 783.519531 331.179688 L 926.246094 331.179688 C 933.65625 331.179688 939.671875 337.179688 939.671875 344.605469 C 939.671875 352.03125 933.671875 358.03125 926.246094 358.03125 L 783.519531 358.03125 C 776.113281 358.03125 770.09375 352.03125 770.09375 344.605469 C 770.09375 337.179688 776.113281 331.179688 783.519531 331.179688 Z M 939.671875 435.6875 C 939.671875 443.097656 933.671875 449.113281 926.246094 449.113281 L 783.519531 449.113281 C 776.113281 449.113281 770.09375 443.113281 770.09375 435.6875 C 770.09375 428.261719 776.097656 422.261719 783.519531 422.261719 L 926.246094 422.261719 C 933.65625 422.261719 939.671875 428.261719 939.671875 435.6875 Z M 939.671875 526.769531 C 939.671875 534.179688 933.671875 540.195312 926.246094 540.195312 L 783.519531 540.195312 C 776.113281 540.195312 770.09375 534.195312 770.09375 526.769531 C 770.09375 519.34375 776.097656 513.34375 783.519531 513.34375 L 926.246094 513.34375 C 933.65625 513.34375 939.671875 519.34375 939.671875 526.769531 Z M 781.359375 86.542969 C 780.890625 82.46875 778.59375 78.847656 775.105469 76.683594 C 758.613281 66.445312 739.554688 61.03125 719.996094 61.03125 C 692.019531 61.03125 665.738281 71.910156 645.976562 91.671875 C 626.195312 111.5 615.300781 137.796875 615.300781 165.722656 C 615.300781 185.21875 620.714844 204.257812 630.941406 220.820312 C 633.101562 224.304688 636.722656 226.617188 640.8125 227.089844 C 641.332031 227.15625 641.851562 227.171875 642.371094 227.171875 C 645.90625 227.171875 649.328125 225.78125 651.859375 223.234375 L 777.539062 97.554688 C 780.421875 94.671875 781.828125 90.597656 781.359375 86.542969 Z M 646.292969 190.832031 C 643.5625 182.785156 642.136719 174.304688 642.136719 165.707031 C 642.136719 144.9375 650.25 125.378906 664.949219 110.628906 C 679.632812 95.945312 699.175781 87.867188 719.976562 87.867188 C 728.59375 87.867188 737.089844 89.273438 745.105469 92.003906 Z M 809.101562 110.609375 C 806.9375 107.125 803.316406 104.8125 799.242188 104.34375 C 795.171875 103.871094 791.097656 105.28125 788.199219 108.179688 L 662.484375 233.859375 C 659.585938 236.757812 658.175781 240.816406 658.648438 244.890625 C 659.117188 248.960938 661.414062 252.597656 664.898438 254.761719 C 680.90625 264.703125 699.328125 270.097656 718.300781 270.398438 C 718.871094 270.46875 719.441406 270.5 720.011719 270.5 C 747.953125 270.5 774.253906 259.589844 794.082031 239.761719 C 813.859375 219.929688 824.753906 193.632812 824.753906 165.707031 C 824.738281 146.214844 819.324219 127.171875 809.101562 110.609375 Z M 775.074219 220.785156 C 760.675781 235.183594 741.699219 243.261719 721.484375 243.632812 C 721 243.582031 720.496094 243.546875 719.996094 243.546875 C 711.378906 243.546875 702.898438 242.140625 694.867188 239.40625 L 793.746094 140.582031 C 796.476562 148.625 797.902344 157.109375 797.902344 165.707031 C 797.886719 186.472656 789.789062 206.035156 775.074219 220.785156 Z M 775.074219 220.785156 " fill-opacity="1" fill-rule="nonzero"/></svg>