<svg xmlns="http://www.w3.org/2000/svg" xmlns:xlink="http://www.w3.org/1999/xlink" width="400" zoomAndPan="magnify" viewBox="0 0 300 299.999988" height="400" preserveAspectRatio="xMidYMid meet" version="1.0"><defs><clipPath id="6a7211cff0"><path d="M 5.929688 73.429688 L 293.929688 73.429688 L 293.929688 226.429688 L 5.929688 226.429688 Z M 5.929688 73.429688 " clip-rule="nonzero"/></clipPath></defs><g clip-path="url(#6a7211cff0)"><path fill="#9f9f9f" d="M 283.566406 240.027344 C 289.21875 240.027344 293.84375 235.402344 293.84375 229.75 L 293.84375 204.898438 C 293.84375 199.246094 289.21875 194.617188 283.566406 194.617188 L 272.894531 194.617188 C 267.238281 194.617188 261.257812 190.195312 259.59375 184.792969 L 250.488281 162.683594 C 247.816406 157.703125 248.898438 150.359375 252.890625 146.363281 L 260.445312 138.808594 C 264.441406 134.8125 264.445312 128.269531 260.445312 124.273438 L 242.875 106.699219 C 238.875 102.703125 232.335938 102.703125 228.335938 106.699219 L 220.785156 114.253906 C 216.785156 118.253906 209.4375 119.332031 204.457031 116.65625 L 182.351562 107.554688 C 176.949219 105.890625 172.527344 99.90625 172.527344 94.253906 L 172.527344 83.582031 C 172.527344 77.929688 167.902344 73.304688 162.25 73.304688 L 137.398438 73.304688 C 131.746094 73.304688 127.121094 77.929688 127.121094 83.582031 L 127.121094 94.253906 C 127.121094 99.90625 122.695312 105.890625 117.296875 107.554688 L 95.1875 116.65625 C 90.207031 119.332031 82.863281 118.25 78.867188 114.25 L 71.3125 106.695312 C 67.3125 102.699219 60.773438 102.699219 56.777344 106.695312 L 39.203125 124.269531 C 35.207031 128.265625 35.207031 134.808594 39.203125 138.804688 L 46.761719 146.359375 C 50.761719 150.359375 51.839844 157.703125 49.167969 162.683594 L 40.058594 184.792969 C 38.398438 190.195312 32.414062 194.617188 26.761719 194.617188 L 16.09375 194.617188 C 10.4375 194.617188 5.8125 199.242188 5.8125 204.894531 L 5.8125 229.75 C 5.8125 235.402344 10.4375 240.027344 16.09375 240.027344 L 26.761719 240.027344 C 32.414062 240.027344 38.398438 244.445312 40.058594 249.851562 L 49.171875 271.960938 C 51.847656 276.941406 50.761719 284.289062 46.765625 288.285156 L 39.207031 295.839844 C 35.210938 299.835938 35.210938 306.375 39.207031 310.375 L 56.777344 327.945312 C 60.773438 331.945312 67.3125 331.941406 71.3125 327.945312 L 78.871094 320.386719 C 82.867188 316.394531 90.214844 315.3125 95.191406 317.988281 L 117.300781 327.09375 C 122.703125 328.753906 127.121094 334.738281 127.121094 340.394531 L 127.121094 351.066406 C 127.121094 356.71875 131.746094 361.34375 137.402344 361.34375 L 162.253906 361.34375 C 167.90625 361.34375 172.53125 356.71875 172.53125 351.066406 L 172.53125 340.390625 C 172.53125 334.738281 176.949219 328.753906 182.355469 327.089844 L 204.460938 317.988281 C 209.441406 315.3125 216.789062 316.390625 220.785156 320.386719 L 228.34375 327.945312 C 232.339844 331.945312 238.882812 331.941406 242.878906 327.945312 L 260.449219 310.375 C 264.445312 306.378906 264.449219 299.835938 260.449219 295.835938 L 252.894531 288.285156 C 248.898438 284.285156 247.816406 276.9375 250.492188 271.957031 L 259.59375 249.851562 C 261.253906 244.445312 267.242188 240.027344 272.898438 240.027344 Z M 149.824219 276.574219 C 117.101562 276.574219 90.574219 250.046875 90.574219 217.324219 C 90.574219 184.597656 117.101562 158.070312 149.824219 158.070312 C 182.546875 158.070312 209.078125 184.597656 209.078125 217.324219 C 209.078125 250.046875 182.546875 276.574219 149.824219 276.574219 Z M 149.824219 276.574219 " fill-opacity="1" fill-rule="nonzero"/></g></svg>