<?xml version="1.0" encoding="utf-8"?>
<!-- Generator: Adobe Illustrator 19.0.0, SVG Export Plug-In . SVG Version: 6.00 Build 0)  -->
<svg version="1.1" id="Layer_1" xmlns="http://www.w3.org/2000/svg" xmlns:xlink="http://www.w3.org/1999/xlink" x="0px" y="0px"
	 viewBox="0 0 658 648.1" style="enable-background:new 0 0 658 648.1;" xml:space="preserve">
<style type="text/css">
	.st0{clip-path:url(#SVGID_2_);}
	.st1{clip-path:url(#SVGID_2_);fill:#FCD60A;}
	.st2{clip-path:url(#SVGID_2_);fill:none;stroke:#FFFFFF;stroke-width:5.029;stroke-miterlimit:10;}
	.st3{clip-path:url(#SVGID_2_);fill:none;stroke:#FFFFFF;stroke-width:4.408;stroke-miterlimit:10;}
	.st4{fill:#FFFFFF;}
	.st5{font-family:'Bebas';}
	.st6{font-size:36.7768px;}
	.st7{letter-spacing:2;}
	.st8{letter-spacing:3;}
	.st9{letter-spacing:-2;}
	.st10{letter-spacing:1;}
</style>
<g>
	<defs>
		<rect id="SVGID_1_" width="658" height="648.1"/>
	</defs>
	<clipPath id="SVGID_2_">
		<use xlink:href="#SVGID_1_"  style="overflow:visible;"/>
	</clipPath>
	<path class="st0" d="M531.2,288.5c0,125.9-102,227.9-227.9,227.9c-125.9,0-227.9-102-227.9-227.9s102-227.9,227.9-227.9
		C429.1,60.6,531.2,162.7,531.2,288.5"/>
	<path class="st1" d="M383.9,300.9h16.3v-6.2l-8.2-2.5l-2-4.6l4.2-7.5l-7.1-7.1l-7.5,4.2l-4.9-2l-2.3-8.2h-10.3l-2.2,8l-4.8,2.3
		l-7.4-4.1l-7.1,6.8l3.9,7.7l-1.7,4.8l-7.8,2v6.5h16.5c0,0-0.4-16.1,16.1-15.9C384.2,285.2,383.9,300.9,383.9,300.9"/>
	<polyline class="st2" points="491.3,158.5 432.2,354.8 179,354.8 	"/>
	<path class="st3" d="M178.3,410.7c0,0,7.4,15,19.4,22.9c11.9,7.9,32.8,13.6,32.8,13.6s18.4-17.4,35.4-17.4s38.6,4.4,53.5,5.8
		c14.9,1.3,14.9,1.3,20.6-1.7c13.5-7.1,23.5-14.4,37.5-23.2c14.1-8.9,33.6-19.3,38-23.4c0,0,4.8-3.2,1.7-7.8
		c-2-2.9-8.8-3.2-17.8-1.4c-7.3,1.5-44.3,17.3-44.3,17.3s2,6-2.7,10.1c-4.7,4.2-12,6.8-27.6,4.8c-15.6-2-28.8-9.3-28.8-9.3
		s14.7,2.7,24.2,2.9c9.5,0.2,10.4,1,19.5,0c8-0.8,10.5-4.8,8-9.3c-2.4-4.4-10.4-6-17.3-7c-7-1-5.2-0.8-17.9-4.6
		c-15.9-4.7-30.4-12.6-39.4-12.6c-11.5,0-19.3,5.4-36.8,14.3C217.2,394.5,178.3,410.7,178.3,410.7z"/>
</g>
<text transform="matrix(1 0 0 1 175.2163 344.9761)"><tspan x="0" y="0" class="st4 st5 st6 st7">T</tspan><tspan x="21.2" y="0" class="st4 st5 st6 st7">E</tspan><tspan x="41.7" y="0" class="st4 st5 st6 st8">C</tspan><tspan x="66" y="0" class="st4 st5 st6 st8">H</tspan><tspan x="93.1" y="0" class="st4 st5 st6 st9">V</tspan><tspan x="111.5" y="0" class="st4 st5 st6 st8">A</tspan><tspan x="137.2" y="0" class="st4 st5 st6 st7">LET</tspan><tspan x="198" y="0" class="st4 st5 st6 st7">.</tspan><tspan x="208" y="0" class="st4 st5 st6 st10">C</tspan><tspan x="231.1" y="0" class="st4 st5 st6">A</tspan></text>
</svg>
