<svg width="50" height="50" viewBox="0 0 50 50" fill="none" xmlns="http://www.w3.org/2000/svg">
<path fill-rule="evenodd" clip-rule="evenodd" d="M9.64896 6.25C9.25521 6.25 8.90417 6.52292 8.76875 6.93333L6.36458 14.2365C6.28867 14.4674 6.24999 14.709 6.25 14.9521V17.8573C6.25 19.5 7.44896 20.8333 8.92813 20.8333C10.4073 20.8333 11.6073 19.5 11.6073 17.8573C11.6073 19.501 12.8062 20.8333 14.2854 20.8333C15.7646 20.8333 16.9646 19.5 16.9646 17.8573C16.9646 19.501 18.1635 20.8333 19.6427 20.8333C21.1219 20.8333 22.3198 19.5021 22.3219 17.8594C22.3219 19.5021 23.5208 20.8333 25 20.8333C26.4792 20.8333 27.6781 19.5 27.6781 17.8573C27.6781 19.501 28.8781 20.8333 30.3573 20.8333C31.8365 20.8333 33.0344 19.5021 33.0354 17.8594C33.0365 19.5021 34.2354 20.8333 35.7146 20.8333C37.1937 20.8333 38.3927 19.5 38.3927 17.8573C38.3927 19.501 39.5917 20.8333 41.0719 20.8333C42.551 20.8333 43.75 19.5 43.75 17.8573V14.9521C43.75 14.709 43.7113 14.4674 43.6354 14.2365L41.2312 6.93438C41.0958 6.52292 40.7448 6.25 40.351 6.25H9.64896Z" fill="black"/>
<path fill-rule="evenodd" clip-rule="evenodd" d="M10.4165 22.1145V30.2083H7.81234C7.6742 30.2083 7.54173 30.2632 7.44405 30.3608C7.34638 30.4585 7.2915 30.591 7.2915 30.7291V31.7708C7.2915 31.9089 7.34638 32.0414 7.44405 32.1391C7.54173 32.2368 7.6742 32.2916 7.81234 32.2916H42.1873C42.3255 32.2916 42.4579 32.2368 42.5556 32.1391C42.6533 32.0414 42.7082 31.9089 42.7082 31.7708V30.7291C42.7082 30.591 42.6533 30.4585 42.5556 30.3608C42.4579 30.2632 42.3255 30.2083 42.1873 30.2083H39.5832V22.1145C39.147 21.9411 38.7441 21.6933 38.3925 21.3823C38.1221 21.62 37.8221 21.8217 37.4998 21.9823V30.2083H12.4998V21.9823C12.1776 21.8217 11.8775 21.62 11.6071 21.3823C11.2571 21.6895 10.8571 21.9395 10.4165 22.1145ZM37.4998 20.076C37.588 19.9878 37.6714 19.893 37.7498 19.7916H37.4998V20.076ZM39.0353 19.7916C39.1932 19.9952 39.3774 20.177 39.5832 20.3323V19.7916H39.0353ZM10.4165 20.3323C10.624 20.179 10.8085 19.997 10.9644 19.7916H10.4165V20.3323ZM12.2498 19.7916H12.4998V20.076C12.4108 19.9864 12.3273 19.8914 12.2498 19.7916ZM8.854 34.375C8.71587 34.375 8.58339 34.4298 8.48572 34.5275C8.38804 34.6252 8.33317 34.7577 8.33317 34.8958V42.7083C8.33317 42.9846 8.44292 43.2495 8.63827 43.4449C8.83362 43.6402 9.09857 43.75 9.37484 43.75H40.6248C40.9011 43.75 41.1661 43.6402 41.3614 43.4449C41.5568 43.2495 41.6665 42.9846 41.6665 42.7083V34.8958C41.6665 34.7577 41.6116 34.6252 41.514 34.5275C41.4163 34.4298 41.2838 34.375 41.1457 34.375H8.854Z" fill="black"/>
<path d="M14.5835 27.6042C14.5835 27.4661 14.6384 27.3336 14.736 27.2359C14.8337 27.1382 14.9662 27.0834 15.1043 27.0834H18.2293C18.3675 27.0834 18.4999 27.1382 18.5976 27.2359C18.6953 27.3336 18.7502 27.4661 18.7502 27.6042V29.6875C18.7502 29.8257 18.6953 29.9582 18.5976 30.0558C18.4999 30.1535 18.3675 30.2084 18.2293 30.2084H15.1043C14.9662 30.2084 14.8337 30.1535 14.736 30.0558C14.6384 29.9582 14.5835 29.8257 14.5835 29.6875V27.6042Z" fill="black"/>
<path d="M16.6665 28.6459C16.6665 28.5077 16.7214 28.3753 16.8191 28.2776C16.9167 28.1799 17.0492 28.125 17.1873 28.125H20.3123C20.4505 28.125 20.5829 28.1799 20.6806 28.2776C20.7783 28.3753 20.8332 28.5077 20.8332 28.6459V29.6875C20.8332 29.8257 20.7783 29.9582 20.6806 30.0558C20.5829 30.1535 20.4505 30.2084 20.3123 30.2084H17.1873C17.0492 30.2084 16.9167 30.1535 16.8191 30.0558C16.7214 29.9582 16.6665 29.8257 16.6665 29.6875V28.6459ZM24.9998 28.6459C24.9998 29.0603 24.8352 29.4577 24.5422 29.7507C24.2492 30.0438 23.8517 30.2084 23.4373 30.2084C23.0229 30.2084 22.6255 30.0438 22.3325 29.7507C22.0395 29.4577 21.8748 29.0603 21.8748 28.6459C21.8748 28.2315 22.0395 27.834 22.3325 27.541C22.6255 27.248 23.0229 27.0834 23.4373 27.0834C23.8517 27.0834 24.2492 27.248 24.5422 27.541C24.8352 27.834 24.9998 28.2315 24.9998 28.6459Z" fill="black"/>
</svg>
