<svg width="48" height="48" viewBox="0 0 48 48" fill="none" xmlns="http://www.w3.org/2000/svg">
<path d="M23.9 36C24.6 36 25.192 35.758 25.676 35.274C26.16 34.79 26.4013 34.1987 26.4 33.5C26.3987 32.8013 26.1573 32.2093 25.676 31.724C25.1947 31.2387 24.6027 30.9973 23.9 31C23.1973 31.0027 22.606 31.2447 22.126 31.726C21.646 32.2073 21.404 32.7987 21.4 33.5C21.396 34.2013 21.638 34.7933 22.126 35.276C22.614 35.7587 23.2053 36 23.9 36ZM24 44C21.2333 44 18.6333 43.4747 16.2 42.424C13.7667 41.3733 11.65 39.9487 9.85 38.15C8.05 36.3513 6.62534 34.2347 5.576 31.8C4.52667 29.3653 4.00134 26.7653 4 24C3.99867 21.2347 4.524 18.6347 5.576 16.2C6.628 13.7653 8.05267 11.6487 9.85 9.85C11.6473 8.05133 13.764 6.62667 16.2 5.576C18.636 4.52533 21.236 4 24 4C26.764 4 29.364 4.52533 31.8 5.576C34.236 6.62667 36.3527 8.05133 38.15 9.85C39.9473 11.6487 41.3727 13.7653 42.426 16.2C43.4793 18.6347 44.004 21.2347 44 24C43.996 26.7653 43.4707 29.3653 42.424 31.8C41.3773 34.2347 39.9527 36.3513 38.15 38.15C36.3473 39.9487 34.2307 41.374 31.8 42.426C29.3693 43.478 26.7693 44.0027 24 44ZM24 40C28.4667 40 32.25 38.45 35.35 35.35C38.45 32.25 40 28.4667 40 24C40 19.5333 38.45 15.75 35.35 12.65C32.25 9.55 28.4667 8 24 8C19.5333 8 15.75 9.55 12.65 12.65C9.55 15.75 8 19.5333 8 24C8 28.4667 9.55 32.25 12.65 35.35C15.75 38.45 19.5333 40 24 40ZM24.2 15.4C25.0333 15.4 25.7587 15.6667 26.376 16.2C26.9933 16.7333 27.3013 17.4 27.3 18.2C27.3 18.9333 27.0753 19.5833 26.626 20.15C26.1767 20.7167 25.668 21.25 25.1 21.75C24.3333 22.4167 23.6587 23.15 23.076 23.95C22.4933 24.75 22.2013 25.65 22.2 26.65C22.2 27.1167 22.3753 27.5087 22.726 27.826C23.0767 28.1433 23.4847 28.3013 23.95 28.3C24.45 28.3 24.8753 28.1333 25.226 27.8C25.5767 27.4667 25.8013 27.05 25.9 26.55C26.0333 25.85 26.3333 25.2253 26.8 24.676C27.2667 24.1267 27.7667 23.6013 28.3 23.1C29.0667 22.3667 29.7253 21.5667 30.276 20.7C30.8267 19.8333 31.1013 18.8667 31.1 17.8C31.1 16.1 30.4087 14.7087 29.026 13.626C27.6433 12.5433 26.0347 12.0013 24.2 12C22.9333 12 21.7253 12.2667 20.576 12.8C19.4267 13.3333 18.5513 14.15 17.95 15.25C17.7167 15.65 17.642 16.0753 17.726 16.526C17.81 16.9767 18.0347 17.318 18.4 17.55C18.8667 17.8167 19.35 17.9 19.85 17.8C20.35 17.7 20.7667 17.4167 21.1 16.95C21.4667 16.45 21.9253 16.0667 22.476 15.8C23.0267 15.5333 23.6013 15.4 24.2 15.4Z" fill="black"/>
</svg>
