<svg width="106" height="60" viewBox="0 0 106 60" fill="none" xmlns="http://www.w3.org/2000/svg">
<rect width="106" height="60" rx="30" fill="#C2FF66"/>
<g clip-path="url(#clip0_1_834)">
<path d="M38 49.1827C38.0096 48.2624 38.2524 47.3594 38.7056 46.5584C39.1834 45.7254 39.8711 45.0321 40.7002 44.5475C41.5293 44.063 42.4708 43.8041 43.4311 43.7966C44.3909 43.8045 45.3319 44.0637 46.1604 44.5482C46.989 45.0327 47.6763 45.7258 48.1539 46.5584C48.6084 47.3591 48.8489 48.263 48.8595 49.1827M56.6189 49.1827C56.6285 48.2624 56.8713 47.3594 57.3246 46.5584C57.8022 45.7258 58.4894 45.0327 59.318 44.5482C60.1466 44.0637 61.0875 43.8045 62.0474 43.7966C63.4785 43.8 64.8508 44.3667 65.8672 45.3743C66.8836 46.3818 67.4625 47.749 67.4784 49.1801M47.4694 31.3144C47.4773 30.4237 47.7125 29.5489 48.1512 28.7719C48.6133 27.963 49.2799 27.2899 50.0843 26.82C50.8886 26.3501 51.8024 26.1 52.7339 26.0947C54.6104 26.0974 56.389 27.136 57.314 28.7719C57.7527 29.5489 57.9879 30.4237 57.9985 31.3144M43.4311 41.3969C44.2312 41.3969 44.9985 41.079 45.5643 40.5133C46.13 39.9475 46.4479 39.1802 46.4479 38.38C46.4479 37.5799 46.13 36.8126 45.5643 36.2468C44.9985 35.6811 44.2312 35.3632 43.4311 35.3632C42.631 35.3632 41.8636 35.6811 41.2979 36.2468C40.7321 36.8126 40.4143 37.5799 40.4143 38.38C40.4143 39.1802 40.7321 39.9475 41.2979 40.5133C41.8636 41.079 42.631 41.3969 43.4311 41.3969ZM62.05 41.3969C62.8501 41.3969 63.6175 41.079 64.1832 40.5133C64.749 39.9475 65.0668 39.1802 65.0668 38.38C65.0668 37.5799 64.749 36.8126 64.1832 36.2468C63.6175 35.6811 62.8501 35.3632 62.05 35.3632C61.2499 35.3632 60.4825 35.6811 59.9168 36.2468C59.351 36.8126 59.0332 37.5799 59.0332 38.38C59.0332 39.1802 59.351 39.9475 59.9168 40.5133C60.4825 41.079 61.2499 41.3969 62.05 41.3969ZM52.7313 24.2553C53.4778 24.2553 54.1937 23.9588 54.7215 23.4309C55.2494 22.9031 55.5459 22.1871 55.5459 21.4407C55.5459 20.6942 55.2494 19.9782 54.7215 19.4504C54.1937 18.9225 53.4778 18.626 52.7313 18.626C51.9848 18.626 51.2689 18.9225 50.741 19.4504C50.2132 19.9782 49.9166 20.6942 49.9166 21.4407C49.9166 22.1871 50.2132 22.9031 50.741 23.4309C51.2689 23.9588 51.9848 24.2553 52.7313 24.2553Z" stroke="black" stroke-width="2" stroke-linecap="round" stroke-linejoin="round"/>
<path d="M65.3721 15H40.0958C39.5929 15.0014 39.1111 15.2018 38.7555 15.5573C38.4 15.9129 38.1996 16.3947 38.1982 16.8976V29.4168C38.1982 30.466 39.0492 31.3144 40.0958 31.3144H65.3721C65.8749 31.313 66.3568 31.1126 66.7123 30.757C67.0679 30.4015 67.2682 29.9196 67.2696 29.4168V16.8976C67.2682 16.3947 67.0679 15.9129 66.7123 15.5573C66.3568 15.2018 65.8749 15.0014 65.3721 15Z" stroke="black" stroke-width="2" stroke-linecap="round" stroke-linejoin="round"/>
</g>
<defs>
<clipPath id="clip0_1_834">
<rect width="37" height="37" fill="white" transform="translate(34 13)"/>
</clipPath>
</defs>
</svg>
