<svg width="106" height="60" viewBox="0 0 106 60" fill="none" xmlns="http://www.w3.org/2000/svg">
<rect width="106" height="60" rx="30" fill="#B1F6FB"/>
<path d="M66.45 14.7H62.75V12.85C62.75 12.3593 62.5551 11.8888 62.2081 11.5419C61.8612 11.1949 61.3907 11 60.9 11C60.4093 11 59.9388 11.1949 59.5919 11.5419C59.2449 11.8888 59.05 12.3593 59.05 12.85V14.7H47.95V12.85C47.95 12.3593 47.7551 11.8888 47.4081 11.5419C47.0612 11.1949 46.5907 11 46.1 11C45.6093 11 45.1388 11.1949 44.7919 11.5419C44.4449 11.8888 44.25 12.3593 44.25 12.85V14.7H40.55C39.078 14.7 37.6664 15.2847 36.6256 16.3256C35.5847 17.3664 35 18.778 35 20.25V42.45C35 43.922 35.5847 45.3336 36.6256 46.3744C37.6664 47.4153 39.078 48 40.55 48H66.45C67.922 48 69.3336 47.4153 70.3744 46.3744C71.4153 45.3336 72 43.922 72 42.45V20.25C72 18.778 71.4153 17.3664 70.3744 16.3256C69.3336 15.2847 67.922 14.7 66.45 14.7ZM68.3 42.45C68.3 42.9407 68.1051 43.4112 67.7581 43.7581C67.4112 44.1051 66.9407 44.3 66.45 44.3H40.55C40.0593 44.3 39.5888 44.1051 39.2419 43.7581C38.8949 43.4112 38.7 42.9407 38.7 42.45V29.5H68.3V42.45ZM68.3 25.8H38.7V20.25C38.7 19.7593 38.8949 19.2888 39.2419 18.9419C39.5888 18.5949 40.0593 18.4 40.55 18.4H44.25V20.25C44.25 20.7407 44.4449 21.2112 44.7919 21.5581C45.1388 21.9051 45.6093 22.1 46.1 22.1C46.5907 22.1 47.0612 21.9051 47.4081 21.5581C47.7551 21.2112 47.95 20.7407 47.95 20.25V18.4H59.05V20.25C59.05 20.7407 59.2449 21.2112 59.5919 21.5581C59.9388 21.9051 60.4093 22.1 60.9 22.1C61.3907 22.1 61.8612 21.9051 62.2081 21.5581C62.5551 21.2112 62.75 20.7407 62.75 20.25V18.4H66.45C66.9407 18.4 67.4112 18.5949 67.7581 18.9419C68.1051 19.2888 68.3 19.7593 68.3 20.25V25.8Z" fill="black"/>
</svg>
